<?xml version="1.0" encoding="UTF-8" standalone="no"?>
<svg width="320px" height="133px" viewBox="0 0 320 133" version="1.1" xmlns="http://www.w3.org/2000/svg" xmlns:xlink="http://www.w3.org/1999/xlink" xmlns:sketch="http://www.bohemiancoding.com/sketch/ns">
    <!-- Generator: Sketch Beta 3.3.2 (12041) - http://www.bohemiancoding.com/sketch -->
    <title>Group</title>
    <desc>Created with Sketch Beta.</desc>
    <defs></defs>
    <g id="Page-1" stroke="none" stroke-width="1" fill="none" fill-rule="evenodd" sketch:type="MSPage">
        <g id="Desktop-HD" sketch:type="MSArtboardGroup" transform="translate(-568.000000, -275.000000)">
            <g id="Group" sketch:type="MSLayerGroup" transform="translate(568.000000, 275.000000)">
                <g id="FUTURE-+-Back-to-the" sketch:type="MSShapeGroup">
                    <path d="M0.34375,42.4609375 L39.71875,42.4609375 L39.71875,53.5351562 L16.3398438,53.5351562 L16.3398438,62.5351562 L36.3085938,62.5351562 L36.3085938,72.9414062 L16.3398438,72.9414062 L16.3398438,94 L0.34375,94 L0.34375,42.4609375 Z M81.8359375,42.4609375 L97.7265625,42.4609375 L97.7265625,73.1875 C97.7265625,76.2343902 97.2519579,79.1113146 96.3027344,81.8183594 C95.3535109,84.5254042 93.8652445,86.892568 91.8378906,88.9199219 C89.8105367,90.9472758 87.6836049,92.3710896 85.4570312,93.1914062 C82.3632658,94.3398495 78.6484592,94.9140625 74.3125,94.9140625 C71.804675,94.9140625 69.0683742,94.738283 66.1035156,94.3867188 C63.1386571,94.0351545 60.6601662,93.3378958 58.6679688,92.2949219 C56.6757713,91.2519479 54.8535239,89.7695409 53.2011719,87.8476562 C51.5488199,85.9257716 50.4179718,83.9453227 49.8085938,81.90625 C48.8242138,78.6249836 48.3320312,75.7187627 48.3320312,73.1875 L48.3320312,42.4609375 L64.2226562,42.4609375 L64.2226562,73.9257812 C64.2226562,76.7382953 65.0019453,78.935539 66.5605469,80.5175781 C68.1191484,82.0996173 70.2812362,82.890625 73.046875,82.890625 C75.7890762,82.890625 77.9394453,82.1113359 79.4980469,80.5527344 C81.0566484,78.9941328 81.8359375,76.7851705 81.8359375,73.9257812 L81.8359375,42.4609375 Z M104.652344,42.4609375 L153.0625,42.4609375 L153.0625,55.1875 L136.820312,55.1875 L136.820312,94 L120.894531,94 L120.894531,55.1875 L104.652344,55.1875 L104.652344,42.4609375 Z M193.808594,42.4609375 L209.699219,42.4609375 L209.699219,73.1875 C209.699219,76.2343902 209.224614,79.1113146 208.275391,81.8183594 C207.326167,84.5254042 205.837901,86.892568 203.810547,88.9199219 C201.783193,90.9472758 199.656261,92.3710896 197.429688,93.1914062 C194.335922,94.3398495 190.621115,94.9140625 186.285156,94.9140625 C183.777331,94.9140625 181.04103,94.738283 178.076172,94.3867188 C175.111313,94.0351545 172.632822,93.3378958 170.640625,92.2949219 C168.648428,91.2519479 166.82618,89.7695409 165.173828,87.8476562 C163.521476,85.9257716 162.390628,83.9453227 161.78125,81.90625 C160.79687,78.6249836 160.304688,75.7187627 160.304688,73.1875 L160.304688,42.4609375 L176.195312,42.4609375 L176.195312,73.9257812 C176.195312,76.7382953 176.974602,78.935539 178.533203,80.5175781 C180.091805,82.0996173 182.253892,82.890625 185.019531,82.890625 C187.761732,82.890625 189.912102,82.1113359 191.470703,80.5527344 C193.029305,78.9941328 193.808594,76.7851705 193.808594,73.9257812 L193.808594,42.4609375 Z M220.457031,94 L220.457031,42.4609375 L247,42.4609375 C251.9219,42.4609375 255.683581,42.8828083 258.285156,43.7265625 C260.886732,44.5703167 262.984367,46.1347542 264.578125,48.4199219 C266.171883,50.7050896 266.96875,53.4882648 266.96875,56.7695312 C266.96875,59.6289205 266.359381,62.0956928 265.140625,64.1699219 C263.921869,66.244151 262.246104,67.9257748 260.113281,69.2148438 C258.753899,70.0351604 256.890637,70.7148411 254.523438,71.2539062 C256.421884,71.8867219 257.804683,72.5195281 258.671875,73.1523438 C259.257815,73.5742209 260.107416,74.4765556 261.220703,75.859375 C262.33399,77.2421944 263.078123,78.30859 263.453125,79.0585938 L271.152344,94 L253.152344,94 L244.644531,78.25 C243.566401,76.2109273 242.605473,74.8867218 241.761719,74.2773438 C240.613276,73.4804648 239.312507,73.0820312 237.859375,73.0820312 L236.453125,73.0820312 L236.453125,94 L220.457031,94 Z M236.453125,63.34375 L243.167969,63.34375 C243.894535,63.34375 245.300771,63.1093773 247.386719,62.640625 C248.441412,62.4296864 249.302731,61.8906293 249.970703,61.0234375 C250.638675,60.1562457 250.972656,59.1601619 250.972656,58.0351562 C250.972656,56.3710854 250.445318,55.0937545 249.390625,54.203125 C248.335932,53.3124955 246.355483,52.8671875 243.449219,52.8671875 L236.453125,52.8671875 L236.453125,63.34375 Z M276.214844,42.4609375 L318.894531,42.4609375 L318.894531,53.4648438 L292.175781,53.4648438 L292.175781,61.65625 L316.960938,61.65625 L316.960938,72.1679688 L292.175781,72.1679688 L292.175781,82.328125 L319.667969,82.328125 L319.667969,94 L276.214844,94 L276.214844,42.4609375 Z" id="FUTURE" fill="#FFFFFF"></path>
                    <path d="M0.211914062,1.52539062 L12.6337891,1.52539062 C14.7041119,1.52539062 16.2934515,2.03808081 17.4018555,3.06347656 C18.5102594,4.08887231 19.0644531,5.35839087 19.0644531,6.87207031 C19.0644531,8.14160791 18.6689493,9.23046421 17.8779297,10.1386719 C17.3505833,10.7441437 16.5791066,11.2226545 15.5634766,11.5742188 C17.106453,11.9453144 18.2416956,12.582515 18.9692383,13.4858398 C19.696781,14.3891647 20.0605469,15.5244072 20.0605469,16.8916016 C20.0605469,18.0048884 19.8017604,19.0058549 19.2841797,19.8945312 C18.766599,20.7832076 18.0585982,21.4863255 17.1601562,22.0039062 C16.6035128,22.3261735 15.7636775,22.5605461 14.640625,22.7070312 C13.1464769,22.9023447 12.1552759,23 11.6669922,23 L0.211914062,23 L0.211914062,1.52539062 Z M6.90625,9.94824219 L9.79199219,9.94824219 C10.8271536,9.94824219 11.5473613,9.77002131 11.9526367,9.41357422 C12.3579122,9.05712712 12.5605469,8.54199556 12.5605469,7.86816406 C12.5605469,7.24316094 12.3579122,6.75488457 11.9526367,6.40332031 C11.5473613,6.05175605 10.8418019,5.87597656 9.8359375,5.87597656 L6.90625,5.87597656 L6.90625,9.94824219 Z M6.90625,18.3857422 L10.2900391,18.3857422 C11.4326229,18.3857422 12.2382789,18.1831075 12.7070312,17.777832 C13.1757836,17.3725566 13.4101562,16.8281284 13.4101562,16.1445312 C13.4101562,15.5097625 13.178225,14.9995136 12.7143555,14.6137695 C12.250486,14.2280254 11.4375058,14.0351563 10.2753906,14.0351563 L6.90625,14.0351563 L6.90625,18.3857422 Z M28.5712891,12.4824219 L22.8730469,11.8818359 C23.0878917,10.8857372 23.3979472,10.1020536 23.8032227,9.53076172 C24.2084981,8.9594698 24.7919884,8.46386929 25.5537109,8.04394531 C26.1005887,7.74120942 26.8525343,7.50683677 27.8095703,7.34082031 C28.7666063,7.17480386 29.8017522,7.09179688 30.9150391,7.09179688 C32.7021574,7.09179688 34.1376899,7.19189353 35.2216797,7.39208984 C36.3056695,7.59228616 37.2089808,8.00976245 37.9316406,8.64453125 C38.4394557,9.08398657 38.8398423,9.70653894 39.1328125,10.512207 C39.4257827,11.3178751 39.5722656,12.0869104 39.5722656,12.8193359 L39.5722656,19.6894531 C39.5722656,20.4218787 39.6186519,20.9956034 39.7114258,21.4106445 C39.8041997,21.8256857 40.0068344,22.3554655 40.3193359,23 L34.7236328,23 C34.4990223,22.5996074 34.3525394,22.2944346 34.2841797,22.0844727 C34.21582,21.8745107 34.1474613,21.5449241 34.0791016,21.0957031 C33.2978477,21.84766 32.5214882,22.384764 31.75,22.7070312 C30.6953072,23.1367209 29.4697335,23.3515625 28.0732422,23.3515625 C26.2177642,23.3515625 24.8090868,22.9218793 23.847168,22.0625 C22.8852491,21.2031207 22.4042969,20.143561 22.4042969,18.8837891 C22.4042969,17.7021425 22.7509731,16.7304726 23.4443359,15.96875 C24.1376988,15.2070274 25.4169829,14.6406269 27.2822266,14.2695312 C29.5185659,13.8203103 30.9687467,13.505372 31.6328125,13.324707 C32.2968783,13.1440421 32.9999963,12.907228 33.7421875,12.6142578 C33.7421875,11.8818323 33.5908218,11.3691421 33.2880859,11.0761719 C32.98535,10.7832017 32.4531288,10.6367188 31.6914062,10.6367188 C30.7148389,10.6367188 29.9824243,10.7929672 29.4941406,11.1054688 C29.1132793,11.3496106 28.8056652,11.8085904 28.5712891,12.4824219 L28.5712891,12.4824219 Z M33.7421875,15.6171875 C32.9218709,15.9101577 32.0673873,16.1689442 31.1787109,16.3935547 C29.9677674,16.7158219 29.2011735,17.0332016 28.8789062,17.3457031 C28.5468733,17.6679704 28.3808594,18.0341776 28.3808594,18.4443359 C28.3808594,18.9130883 28.544432,19.2963852 28.871582,19.5942383 C29.1987321,19.8920913 29.6796843,20.0410156 30.3144531,20.0410156 C30.9785189,20.0410156 31.5961885,19.8798844 32.1674805,19.5576172 C32.7387724,19.23535 33.1440418,18.8422875 33.3833008,18.378418 C33.6225598,17.9145485 33.7421875,17.3115271 33.7421875,16.5693359 L33.7421875,15.6171875 Z M54.7480469,16.9208984 L60.4169922,17.5654297 C60.1044906,18.7470762 59.5918004,19.7700152 58.8789062,20.6342773 C58.1660121,21.4985395 57.2553766,22.1699195 56.1469727,22.6484375 C55.0385687,23.1269555 53.6298914,23.3662109 51.9208984,23.3662109 C50.2704996,23.3662109 48.8960016,23.2124039 47.7973633,22.9047852 C46.698725,22.5971664 45.7539102,22.0991245 44.9628906,21.4106445 C44.171871,20.7221645 43.5517601,19.9140671 43.1025391,18.9863281 C42.6533181,18.0585891 42.4287109,16.8281327 42.4287109,15.2949219 C42.4287109,13.6933514 42.7021457,12.3603569 43.2490234,11.2958984 C43.6494161,10.5146445 44.1962856,9.81396794 44.8896484,9.19384766 C45.5830113,8.57372737 46.2958948,8.1123062 47.0283203,7.80957031 C48.1904355,7.33105229 49.6796784,7.09179688 51.4960938,7.09179688 C54.0351689,7.09179688 55.9711847,7.5458939 57.3041992,8.45410156 C58.6372137,9.36230923 59.5722629,10.6904209 60.109375,12.4384766 L54.4990234,13.1855469 C54.3232413,12.5214811 54.0034203,12.0209978 53.5395508,11.684082 C53.0756813,11.3471663 52.4531289,11.1787109 51.671875,11.1787109 C50.6855419,11.1787109 49.8872101,11.5327113 49.2768555,12.2407227 C48.6665009,12.948734 48.3613281,14.0205006 48.3613281,15.4560547 C48.3613281,16.735358 48.6640595,17.7070279 49.2695312,18.3710938 C49.875003,19.0351596 50.6464797,19.3671875 51.5839844,19.3671875 C52.3652383,19.3671875 53.02197,19.1669942 53.5541992,18.7666016 C54.0864284,18.3662089 54.4843737,17.7509807 54.7480469,16.9208984 L54.7480469,16.9208984 Z M62.6435547,1.52539062 L68.7373047,1.52539062 L68.7373047,12.5996094 L73.1904297,7.44335938 L80.5292969,7.44335938 L74.9482422,12.8925781 L80.8515625,23 L74.1279297,23 L70.9785156,16.7597656 L68.7373047,18.9570312 L68.7373047,23 L62.6435547,23 L62.6435547,1.52539062 Z M99.8505859,1.52539062 L99.8505859,7.44335938 L103.131836,7.44335938 L103.131836,11.7939453 L99.8505859,11.7939453 L99.8505859,17.3164062 C99.8505859,17.9804721 99.9140619,18.4199208 100.041016,18.6347656 C100.236329,18.9667985 100.578123,19.1328125 101.066406,19.1328125 C101.505862,19.1328125 102.12109,19.0058606 102.912109,18.7519531 L103.351562,22.8681641 C101.876946,23.1904313 100.500006,23.3515625 99.2207031,23.3515625 C97.7363207,23.3515625 96.6425816,23.1611347 95.9394531,22.7802734 C95.2363246,22.3994122 94.7163103,21.8208047 94.3793945,21.0444336 C94.0424788,20.2680625 93.8740234,19.0107509 93.8740234,17.2724609 L93.8740234,11.7939453 L91.6767578,11.7939453 L91.6767578,7.44335938 L93.8740234,7.44335938 L93.8740234,4.58691406 L99.8505859,1.52539062 Z M105.241211,15.265625 C105.241211,12.8925663 106.041984,10.9370194 107.643555,9.39892578 C109.245125,7.86083215 111.40819,7.09179688 114.132812,7.09179688 C117.248062,7.09179688 119.601555,7.99510815 121.193359,9.80175781 C122.472663,11.2568432 123.112305,13.0488175 123.112305,15.1777344 C123.112305,17.5703245 122.318856,19.5307541 120.731934,21.059082 C119.145012,22.58741 116.950209,23.3515625 114.147461,23.3515625 C111.647448,23.3515625 109.625984,22.7168032 108.083008,21.4472656 C106.188467,19.8749921 105.241211,17.8144659 105.241211,15.265625 L105.241211,15.265625 Z M111.217773,15.2509766 C111.217773,16.6377022 111.498532,17.6630826 112.060059,18.3271484 C112.621585,18.9912143 113.327144,19.3232422 114.176758,19.3232422 C115.036137,19.3232422 115.741696,18.996097 116.293457,18.3417969 C116.845218,17.6874967 117.121094,16.6377025 117.121094,15.1923828 C117.121094,13.8447198 116.842776,12.8413119 116.286133,12.1821289 C115.729489,11.5229459 115.04102,11.1933594 114.220703,11.1933594 C113.351558,11.1933594 112.633792,11.5278287 112.067383,12.1967773 C111.500974,12.865726 111.217773,13.8837822 111.217773,15.2509766 L111.217773,15.2509766 Z" id="Back-to-" fill="#FFFFFF"></path>
                    <path d="M140.994141,0.525390625 L140.994141,6.44335938 L144.275391,6.44335938 L144.275391,10.7939453 L140.994141,10.7939453 L140.994141,16.3164062 C140.994141,16.9804721 141.057617,17.4199208 141.18457,17.6347656 C141.379884,17.9667985 141.721677,18.1328125 142.209961,18.1328125 C142.649416,18.1328125 143.264644,18.0058606 144.055664,17.7519531 L144.495117,21.8681641 C143.0205,22.1904313 141.643561,22.3515625 140.364258,22.3515625 C138.879875,22.3515625 137.786136,22.1611347 137.083008,21.7802734 C136.379879,21.3994122 135.859865,20.8208047 135.522949,20.0444336 C135.186033,19.2680625 135.017578,18.0107509 135.017578,16.2724609 L135.017578,10.7939453 L132.820312,10.7939453 L132.820312,6.44335938 L135.017578,6.44335938 L135.017578,3.58691406 L140.994141,0.525390625 Z M147.117188,0.525390625 L153.079102,0.525390625 L153.079102,8.43554688 C153.889652,7.59569893 154.695308,6.99511899 155.496094,6.63378906 C156.296879,6.27245913 157.244135,6.09179688 158.337891,6.09179688 C159.958992,6.09179688 161.235835,6.58495601 162.168457,7.57128906 C163.101079,8.55762212 163.567383,10.0712789 163.567383,12.1123047 L163.567383,22 L157.576172,22 L157.576172,13.4453125 C157.576172,12.4687451 157.39551,11.7778341 157.03418,11.3725586 C156.67285,10.9672831 156.165042,10.7646484 155.510742,10.7646484 C154.788082,10.7646484 154.202151,11.0380832 153.75293,11.5849609 C153.303709,12.1318387 153.079102,13.1132742 153.079102,14.5292969 L153.079102,22 L147.117188,22 L147.117188,0.525390625 Z M184.397461,15.7011719 L172.444336,15.7011719 C172.551758,16.6582079 172.810545,17.3710914 173.220703,17.8398438 C173.796878,18.5136752 174.548823,18.8505859 175.476562,18.8505859 C176.062503,18.8505859 176.619138,18.704103 177.146484,18.4111328 C177.468752,18.225585 177.815428,17.8984398 178.186523,17.4296875 L184.060547,17.9716797 C183.162105,19.5341875 182.078131,20.6547818 180.808594,21.3334961 C179.539056,22.0122104 177.717785,22.3515625 175.344727,22.3515625 C173.284169,22.3515625 171.663092,22.0610381 170.481445,21.4799805 C169.299799,20.8989229 168.320805,19.9760805 167.544434,18.7114258 C166.768063,17.446771 166.379883,15.9599695 166.379883,14.2509766 C166.379883,11.8193238 167.158684,9.85157002 168.716309,8.34765625 C170.273934,6.84374248 172.424791,6.09179688 175.168945,6.09179688 C177.395519,6.09179688 179.153314,6.42870757 180.442383,7.10253906 C181.731452,7.77637056 182.712887,8.75292329 183.386719,10.0322266 C184.06055,11.3115298 184.397461,12.9765522 184.397461,15.0273438 L184.397461,15.7011719 Z M178.333008,12.8447266 C178.21582,11.6923771 177.905764,10.86719 177.402832,10.3691406 C176.8999,9.87109126 176.238285,9.62207031 175.417969,9.62207031 C174.470698,9.62207031 173.71387,9.99804312 173.147461,10.75 C172.786131,11.2187523 172.556641,11.9169875 172.458984,12.8447266 L178.333008,12.8447266 Z" id="the" fill="#60B65F"></path>
                </g>
                <path d="M5.32,121.02 L10.02,121.02 L10.02,127.18 C9.8066656,127.340001 9.5500015,127.486666 9.25,127.62 C8.9499985,127.753334 8.6300017,127.866666 8.29,127.96 C7.9499983,128.053334 7.5966685,128.123333 7.23,128.17 C6.8633315,128.216667 6.5066684,128.24 6.16,128.24 C5.2666622,128.24 4.4466704,128.096668 3.7,127.81 C2.9533296,127.523332 2.3066694,127.083336 1.76,126.49 C1.2133306,125.896664 0.7866682,125.143338 0.48,124.23 C0.1733318,123.316662 0.02,122.240006 0.02,121 C0.02,119.70666 0.2066648,118.600005 0.58,117.68 C0.9533352,116.759995 1.439997,116.010003 2.04,115.43 C2.640003,114.849997 3.3133296,114.426668 4.06,114.16 C4.8066704,113.893332 5.5533296,113.76 6.3,113.76 C7.100004,113.76 7.7599974,113.803333 8.28,113.89 C8.8000026,113.976667 9.2399982,114.093333 9.6,114.24 L9.18,115.7 C8.5399968,115.393332 7.6266726,115.24 6.44,115.24 C5.8799972,115.24 5.3233361,115.336666 4.77,115.53 C4.2166639,115.723334 3.7200022,116.046664 3.28,116.5 C2.8399978,116.953336 2.4800014,117.546663 2.2,118.28 C1.9199986,119.013337 1.78,119.919995 1.78,121 C1.78,121.986672 1.8933322,122.839996 2.12,123.56 C2.3466678,124.280004 2.6633313,124.876664 3.07,125.35 C3.4766687,125.823336 3.9666638,126.176665 4.54,126.41 C5.1133362,126.643335 5.7399966,126.76 6.42,126.76 C7.2733376,126.76 7.999997,126.593335 8.6,126.26 L8.6,122.36 L5.32,121.96 L5.32,121.02 Z M12.12,123 C12.12,121.306658 12.4966629,120.010005 13.25,119.11 C14.0033371,118.209996 15.0866596,117.76 16.5,117.76 C17.2466704,117.76 17.8966639,117.883332 18.45,118.13 C19.0033361,118.376668 19.4599982,118.729998 19.82,119.19 C20.1800018,119.650002 20.4466658,120.20333 20.62,120.85 C20.7933342,121.49667 20.88,122.213329 20.88,123 C20.88,124.693342 20.5033371,125.989995 19.75,126.89 C18.9966629,127.790004 17.9133404,128.24 16.5,128.24 C15.7533296,128.24 15.1033361,128.116668 14.55,127.87 C13.9966639,127.623332 13.5400018,127.270002 13.18,126.81 C12.8199982,126.349998 12.5533342,125.79667 12.38,125.15 C12.2066658,124.50333 12.12,123.786671 12.12,123 L12.12,123 Z M13.78,123 C13.78,123.506669 13.8299995,123.993331 13.93,124.46 C14.0300005,124.926669 14.1866656,125.333332 14.4,125.68 C14.6133344,126.026668 14.8933316,126.306666 15.24,126.52 C15.5866684,126.733334 16.0066642,126.84 16.5,126.84 C18.3133424,126.853333 19.22,125.573346 19.22,123 C19.22,122.479997 19.1700005,121.986669 19.07,121.52 C18.9699995,121.053331 18.8133344,120.646668 18.6,120.3 C18.3866656,119.953332 18.1066684,119.676668 17.76,119.47 C17.4133316,119.263332 16.9933358,119.16 16.5,119.16 C14.6866576,119.146667 13.78,120.426654 13.78,123 L13.78,123 Z M36.4,128.46 C36.4,129.75334 36.0566701,130.706664 35.37,131.32 C34.6833299,131.933336 33.6666734,132.24 32.32,132.24 C31.519996,132.24 30.8766691,132.19 30.39,132.09 C29.9033309,131.99 29.4866684,131.860001 29.14,131.7 L29.56,130.34 C29.8666682,130.460001 30.2066648,130.573333 30.58,130.68 C30.9533352,130.786667 31.439997,130.84 32.04,130.84 C32.6000028,130.84 33.0566649,130.79 33.41,130.69 C33.7633351,130.59 34.0466656,130.423335 34.26,130.19 C34.4733344,129.956665 34.6199996,129.656668 34.7,129.29 C34.7800004,128.923331 34.82,128.486669 34.82,127.98 L34.82,127.02 L34.74,127.02 C34.473332,127.406669 34.1333354,127.703332 33.72,127.91 C33.3066646,128.116668 32.76667,128.22 32.1,128.22 C30.7533266,128.22 29.7633365,127.800004 29.13,126.96 C28.4966635,126.119996 28.18,124.813342 28.18,123.04 C28.18,121.333325 28.5866626,120.036671 29.4,119.15 C30.2133374,118.263329 31.4133254,117.82 33,117.82 C33.7600038,117.82 34.4099973,117.879999 34.95,118 C35.4900027,118.120001 35.9733312,118.259999 36.4,118.42 L36.4,128.46 Z M32.38,126.82 C33.0600034,126.82 33.5933314,126.650002 33.98,126.31 C34.3666686,125.969998 34.6399992,125.440004 34.8,124.72 L34.8,119.6 C34.266664,119.346665 33.5866708,119.22 32.76,119.22 C31.8533288,119.22 31.1400026,119.526664 30.62,120.14 C30.0999974,120.753336 29.84,121.713327 29.84,123.02 C29.84,123.580003 29.8866662,124.093331 29.98,124.56 C30.0733338,125.026669 30.219999,125.426665 30.42,125.76 C30.620001,126.093335 30.8799984,126.353332 31.2,126.54 C31.5200016,126.726668 31.913331,126.82 32.38,126.82 L32.38,126.82 Z M46.78,127.2 C46.379998,127.520002 45.8766697,127.773332 45.27,127.96 C44.6633303,128.146668 44.0200034,128.24 43.34,128.24 C42.5799962,128.24 41.9200028,128.116668 41.36,127.87 C40.7999972,127.623332 40.3400018,127.270002 39.98,126.81 C39.6199982,126.349998 39.3533342,125.800003 39.18,125.16 C39.0066658,124.519997 38.92,123.800004 38.92,123 C38.92,121.293325 39.2999962,119.993338 40.06,119.1 C40.8200038,118.206662 41.9066596,117.76 43.32,117.76 C43.7733356,117.76 44.2266644,117.81 44.68,117.91 C45.1333356,118.010001 45.5399982,118.199999 45.9,118.48 C46.2600018,118.760001 46.5533322,119.156664 46.78,119.67 C47.0066678,120.183336 47.12,120.859996 47.12,121.7 C47.12,122.140002 47.0800004,122.626664 47,123.16 L40.58,123.16 C40.58,123.74667 40.6399994,124.266664 40.76,124.72 C40.8800006,125.173336 41.0666654,125.556665 41.32,125.87 C41.5733346,126.183335 41.9033313,126.423333 42.31,126.59 C42.7166687,126.756667 43.2133304,126.84 43.8,126.84 C44.2533356,126.84 44.7066644,126.760001 45.16,126.6 C45.6133356,126.439999 45.9533322,126.253334 46.18,126.04 L46.78,127.2 Z M43.34,119.16 C42.5533294,119.16 41.9233357,119.366665 41.45,119.78 C40.9766643,120.193335 40.6933338,120.899995 40.6,121.9 L45.56,121.9 C45.56,120.886662 45.3666686,120.176669 44.98,119.77 C44.5933314,119.363331 44.0466702,119.16 43.34,119.16 L43.34,119.16 Z M56.06,128 L56.06,122.3 C56.06,121.259995 55.9100015,120.476669 55.61,119.95 C55.3099985,119.423331 54.760004,119.16 53.96,119.16 C53.2533298,119.16 52.6700023,119.349998 52.21,119.73 C51.7499977,120.110002 51.4266676,120.586664 51.24,121.16 L51.24,128 L49.64,128 L49.64,118 L50.76,118 L51.06,119.22 L51.14,119.22 C51.4600016,118.793331 51.8899973,118.443335 52.43,118.17 C52.9700027,117.896665 53.6133296,117.76 54.36,117.76 C54.9066694,117.76 55.3866646,117.823333 55.8,117.95 C56.2133354,118.076667 56.5566653,118.299998 56.83,118.62 C57.1033347,118.940002 57.3099993,119.369997 57.45,119.91 C57.5900007,120.450003 57.66,121.133329 57.66,121.96 L57.66,128 L56.06,128 Z M59.26,118 L60.82,118 L60.82,116.02 L62.42,115.56 L62.42,118 L65.14,118 L65.14,119.4 L62.42,119.4 L62.42,124.94 C62.42,125.633337 62.5066658,126.123332 62.68,126.41 C62.8533342,126.696668 63.1466646,126.84 63.56,126.84 C63.9066684,126.84 64.1999988,126.803334 64.44,126.73 C64.6800012,126.656666 64.9466652,126.560001 65.24,126.44 L65.6,127.66 C65.2399982,127.833334 64.8466688,127.973333 64.42,128.08 C63.9933312,128.186667 63.5333358,128.24 63.04,128.24 C62.2266626,128.24 61.653335,128.010002 61.32,127.55 C60.986665,127.089998 60.82,126.320005 60.82,125.24 L60.82,119.4 L59.26,119.4 L59.26,118 Z M69.14,125.54 C69.14,126.006669 69.2199992,126.339999 69.38,126.54 C69.5400008,126.740001 69.7666652,126.84 70.06,126.84 C70.2333342,126.84 70.419999,126.826667 70.62,126.8 C70.820001,126.773333 71.0466654,126.713334 71.3,126.62 L71.48,127.88 C71.2666656,127.986667 70.9700019,128.073333 70.59,128.14 C70.2099981,128.206667 69.8800014,128.24 69.6,128.24 C68.999997,128.24 68.5066686,128.070002 68.12,127.73 C67.7333314,127.389998 67.54,126.813337 67.54,126 L67.54,114 L69.14,114 L69.14,125.54 Z M80.5,127.2 C80.099998,127.520002 79.5966697,127.773332 78.99,127.96 C78.3833303,128.146668 77.7400034,128.24 77.06,128.24 C76.2999962,128.24 75.6400028,128.116668 75.08,127.87 C74.5199972,127.623332 74.0600018,127.270002 73.7,126.81 C73.3399982,126.349998 73.0733342,125.800003 72.9,125.16 C72.7266658,124.519997 72.64,123.800004 72.64,123 C72.64,121.293325 73.0199962,119.993338 73.78,119.1 C74.5400038,118.206662 75.6266596,117.76 77.04,117.76 C77.4933356,117.76 77.9466644,117.81 78.4,117.91 C78.8533356,118.010001 79.2599982,118.199999 79.62,118.48 C79.9800018,118.760001 80.2733322,119.156664 80.5,119.67 C80.7266678,120.183336 80.84,120.859996 80.84,121.7 C80.84,122.140002 80.8000004,122.626664 80.72,123.16 L74.3,123.16 C74.3,123.74667 74.3599994,124.266664 74.48,124.72 C74.6000006,125.173336 74.7866654,125.556665 75.04,125.87 C75.2933346,126.183335 75.6233313,126.423333 76.03,126.59 C76.4366687,126.756667 76.9333304,126.84 77.52,126.84 C77.9733356,126.84 78.4266644,126.760001 78.88,126.6 C79.3333356,126.439999 79.6733322,126.253334 79.9,126.04 L80.5,127.2 Z M77.06,119.16 C76.2733294,119.16 75.6433357,119.366665 75.17,119.78 C74.6966643,120.193335 74.4133338,120.899995 74.32,121.9 L79.28,121.9 C79.28,120.886662 79.0866686,120.176669 78.7,119.77 C78.3133314,119.363331 77.7666702,119.16 77.06,119.16 L77.06,119.16 Z M89.04,118 L90.64,118 L90.64,128 L89.04,128 L89.04,118 Z M88.7,114.96 C88.7,114.653332 88.8033323,114.390001 89.01,114.17 C89.2166677,113.949999 89.4799984,113.84 89.8,113.84 C90.1200016,113.84 90.3933322,113.949999 90.62,114.17 C90.8466678,114.390001 90.96,114.653332 90.96,114.96 C90.96,115.266668 90.8466678,115.519999 90.62,115.72 C90.3933322,115.920001 90.1200016,116.02 89.8,116.02 C89.4799984,116.02 89.2166677,115.920001 89.01,115.72 C88.8033323,115.519999 88.7,115.266668 88.7,114.96 L88.7,114.96 Z M100.48,128 L100.48,122.3 C100.48,121.259995 100.330001,120.476669 100.03,119.95 C99.7299985,119.423331 99.180004,119.16 98.38,119.16 C97.6733298,119.16 97.0900023,119.349998 96.63,119.73 C96.1699977,120.110002 95.8466676,120.586664 95.66,121.16 L95.66,128 L94.06,128 L94.06,118 L95.18,118 L95.48,119.22 L95.56,119.22 C95.8800016,118.793331 96.3099973,118.443335 96.85,118.17 C97.3900027,117.896665 98.0333296,117.76 98.78,117.76 C99.3266694,117.76 99.8066646,117.823333 100.22,117.95 C100.633335,118.076667 100.976665,118.299998 101.25,118.62 C101.523335,118.940002 101.729999,119.369997 101.87,119.91 C102.010001,120.450003 102.08,121.133329 102.08,121.96 L102.08,128 L100.48,128 Z M103.68,118 L105.24,118 L105.24,116.02 L106.84,115.56 L106.84,118 L109.56,118 L109.56,119.4 L106.84,119.4 L106.84,124.94 C106.84,125.633337 106.926666,126.123332 107.1,126.41 C107.273334,126.696668 107.566665,126.84 107.98,126.84 C108.326668,126.84 108.619999,126.803334 108.86,126.73 C109.100001,126.656666 109.366665,126.560001 109.66,126.44 L110.02,127.66 C109.659998,127.833334 109.266669,127.973333 108.84,128.08 C108.413331,128.186667 107.953336,128.24 107.46,128.24 C106.646663,128.24 106.073335,128.010002 105.74,127.55 C105.406665,127.089998 105.24,126.320005 105.24,125.24 L105.24,119.4 L103.68,119.4 L103.68,118 Z M111.22,123 C111.22,121.306658 111.596663,120.010005 112.35,119.11 C113.103337,118.209996 114.18666,117.76 115.6,117.76 C116.34667,117.76 116.996664,117.883332 117.55,118.13 C118.103336,118.376668 118.559998,118.729998 118.92,119.19 C119.280002,119.650002 119.546666,120.20333 119.72,120.85 C119.893334,121.49667 119.98,122.213329 119.98,123 C119.98,124.693342 119.603337,125.989995 118.85,126.89 C118.096663,127.790004 117.01334,128.24 115.6,128.24 C114.85333,128.24 114.203336,128.116668 113.65,127.87 C113.096664,127.623332 112.640002,127.270002 112.28,126.81 C111.919998,126.349998 111.653334,125.79667 111.48,125.15 C111.306666,124.50333 111.22,123.786671 111.22,123 L111.22,123 Z M112.88,123 C112.88,123.506669 112.929999,123.993331 113.03,124.46 C113.13,124.926669 113.286666,125.333332 113.5,125.68 C113.713334,126.026668 113.993332,126.306666 114.34,126.52 C114.686668,126.733334 115.106664,126.84 115.6,126.84 C117.413342,126.853333 118.32,125.573346 118.32,123 C118.32,122.479997 118.27,121.986669 118.17,121.52 C118.069999,121.053331 117.913334,120.646668 117.7,120.3 C117.486666,119.953332 117.206668,119.676668 116.86,119.47 C116.513332,119.263332 116.093336,119.16 115.6,119.16 C113.786658,119.146667 112.88,120.426654 112.88,123 L112.88,123 Z M126.52,118 L128.08,118 L128.08,116.02 L129.68,115.56 L129.68,118 L132.4,118 L132.4,119.4 L129.68,119.4 L129.68,124.94 C129.68,125.633337 129.766666,126.123332 129.94,126.41 C130.113334,126.696668 130.406665,126.84 130.82,126.84 C131.166668,126.84 131.459999,126.803334 131.7,126.73 C131.940001,126.656666 132.206665,126.560001 132.5,126.44 L132.86,127.66 C132.499998,127.833334 132.106669,127.973333 131.68,128.08 C131.253331,128.186667 130.793336,128.24 130.3,128.24 C129.486663,128.24 128.913335,128.010002 128.58,127.55 C128.246665,127.089998 128.08,126.320005 128.08,125.24 L128.08,119.4 L126.52,119.4 L126.52,118 Z M141.04,128 L141.04,122.3 C141.04,121.779997 141.01,121.323335 140.95,120.93 C140.89,120.536665 140.780001,120.210001 140.62,119.95 C140.459999,119.689999 140.243335,119.493334 139.97,119.36 C139.696665,119.226666 139.340002,119.16 138.9,119.16 C138.27333,119.16 137.706669,119.363331 137.2,119.77 C136.693331,120.176669 136.366667,120.699997 136.22,121.34 L136.22,128 L134.62,128 L134.62,114 L136.22,114 L136.22,119.12 L136.3,119.12 C136.646668,118.706665 137.063331,118.376668 137.55,118.13 C138.036669,117.883332 138.639996,117.76 139.36,117.76 C139.920003,117.76 140.406665,117.823333 140.82,117.95 C141.233335,118.076667 141.576665,118.299998 141.85,118.62 C142.123335,118.940002 142.323333,119.369997 142.45,119.91 C142.576667,120.450003 142.64,121.133329 142.64,121.96 L142.64,128 L141.04,128 Z M145.4,118.74 C145.906669,118.433332 146.496663,118.206667 147.17,118.06 C147.843337,117.913333 148.546663,117.84 149.28,117.84 C149.973337,117.84 150.529998,117.933332 150.95,118.12 C151.370002,118.306668 151.689999,118.549999 151.91,118.85 C152.130001,119.150002 152.276666,119.479998 152.35,119.84 C152.423334,120.200002 152.46,120.559998 152.46,120.92 C152.46,121.720004 152.44,122.499996 152.4,123.26 C152.36,124.020004 152.34,124.739997 152.34,125.42 C152.34,125.913336 152.36,126.379998 152.4,126.82 C152.44,127.260002 152.513333,127.666665 152.62,128.04 L151.44,128.04 L151.02,126.64 L150.92,126.64 C150.799999,126.826668 150.650001,127.009999 150.47,127.19 C150.289999,127.370001 150.073335,127.529999 149.82,127.67 C149.566665,127.810001 149.273335,127.926666 148.94,128.02 C148.606665,128.113334 148.226669,128.16 147.8,128.16 C147.373331,128.16 146.976668,128.093334 146.61,127.96 C146.243331,127.826666 145.926668,127.636668 145.66,127.39 C145.393332,127.143332 145.183334,126.846668 145.03,126.5 C144.876666,126.153332 144.8,125.760002 144.8,125.32 C144.8,124.73333 144.919999,124.243335 145.16,123.85 C145.400001,123.456665 145.736664,123.143334 146.17,122.91 C146.603335,122.676665 147.12333,122.510001 147.73,122.41 C148.33667,122.31 149.006663,122.26 149.74,122.26 L150.29,122.26 C150.470001,122.26 150.653332,122.273333 150.84,122.3 C150.88,121.899998 150.9,121.540002 150.9,121.22 C150.9,120.486663 150.753335,119.973335 150.46,119.68 C150.166665,119.386665 149.633337,119.24 148.86,119.24 C148.633332,119.24 148.390001,119.256666 148.13,119.29 C147.869999,119.323334 147.603335,119.37 147.33,119.43 C147.056665,119.49 146.796668,119.563333 146.55,119.65 C146.303332,119.736667 146.086668,119.833333 145.9,119.94 L145.4,118.74 Z M148.24,126.76 C148.613335,126.76 148.946665,126.710001 149.24,126.61 C149.533335,126.509999 149.786666,126.383334 150,126.23 C150.213334,126.076666 150.389999,125.906668 150.53,125.72 C150.670001,125.533332 150.773333,125.353334 150.84,125.18 L150.84,123.52 C150.653332,123.506667 150.463334,123.496667 150.27,123.49 C150.076666,123.483333 149.886668,123.48 149.7,123.48 C149.286665,123.48 148.883335,123.503333 148.49,123.55 C148.096665,123.596667 147.750001,123.683333 147.45,123.81 C147.149998,123.936667 146.910001,124.109999 146.73,124.33 C146.549999,124.550001 146.46,124.826665 146.46,125.16 C146.46,125.626669 146.626665,126.009998 146.96,126.31 C147.293335,126.610001 147.719997,126.76 148.24,126.76 L148.24,126.76 Z M154.16,118 L155.72,118 L155.72,116.02 L157.32,115.56 L157.32,118 L160.04,118 L160.04,119.4 L157.32,119.4 L157.32,124.94 C157.32,125.633337 157.406666,126.123332 157.58,126.41 C157.753334,126.696668 158.046665,126.84 158.46,126.84 C158.806668,126.84 159.099999,126.803334 159.34,126.73 C159.580001,126.656666 159.846665,126.560001 160.14,126.44 L160.5,127.66 C160.139998,127.833334 159.746669,127.973333 159.32,128.08 C158.893331,128.186667 158.433336,128.24 157.94,128.24 C157.126663,128.24 156.553335,128.010002 156.22,127.55 C155.886665,127.089998 155.72,126.320005 155.72,125.24 L155.72,119.4 L154.16,119.4 L154.16,118 Z M175.26,128.46 C175.26,129.75334 174.91667,130.706664 174.23,131.32 C173.54333,131.933336 172.526673,132.24 171.18,132.24 C170.379996,132.24 169.736669,132.19 169.25,132.09 C168.763331,131.99 168.346668,131.860001 168,131.7 L168.42,130.34 C168.726668,130.460001 169.066665,130.573333 169.44,130.68 C169.813335,130.786667 170.299997,130.84 170.9,130.84 C171.460003,130.84 171.916665,130.79 172.27,130.69 C172.623335,130.59 172.906666,130.423335 173.12,130.19 C173.333334,129.956665 173.48,129.656668 173.56,129.29 C173.64,128.923331 173.68,128.486669 173.68,127.98 L173.68,127.02 L173.6,127.02 C173.333332,127.406669 172.993335,127.703332 172.58,127.91 C172.166665,128.116668 171.62667,128.22 170.96,128.22 C169.613327,128.22 168.623336,127.800004 167.99,126.96 C167.356663,126.119996 167.04,124.813342 167.04,123.04 C167.04,121.333325 167.446663,120.036671 168.26,119.15 C169.073337,118.263329 170.273325,117.82 171.86,117.82 C172.620004,117.82 173.269997,117.879999 173.81,118 C174.350003,118.120001 174.833331,118.259999 175.26,118.42 L175.26,128.46 Z M171.24,126.82 C171.920003,126.82 172.453331,126.650002 172.84,126.31 C173.226669,125.969998 173.499999,125.440004 173.66,124.72 L173.66,119.6 C173.126664,119.346665 172.446671,119.22 171.62,119.22 C170.713329,119.22 170.000003,119.526664 169.48,120.14 C168.959997,120.753336 168.7,121.713327 168.7,123.02 C168.7,123.580003 168.746666,124.093331 168.84,124.56 C168.933334,125.026669 169.079999,125.426665 169.28,125.76 C169.480001,126.093335 169.739998,126.353332 170.06,126.54 C170.380002,126.726668 170.773331,126.82 171.24,126.82 L171.24,126.82 Z M177.78,123 C177.78,121.306658 178.156663,120.010005 178.91,119.11 C179.663337,118.209996 180.74666,117.76 182.16,117.76 C182.90667,117.76 183.556664,117.883332 184.11,118.13 C184.663336,118.376668 185.119998,118.729998 185.48,119.19 C185.840002,119.650002 186.106666,120.20333 186.28,120.85 C186.453334,121.49667 186.54,122.213329 186.54,123 C186.54,124.693342 186.163337,125.989995 185.41,126.89 C184.656663,127.790004 183.57334,128.24 182.16,128.24 C181.41333,128.24 180.763336,128.116668 180.21,127.87 C179.656664,127.623332 179.200002,127.270002 178.84,126.81 C178.479998,126.349998 178.213334,125.79667 178.04,125.15 C177.866666,124.50333 177.78,123.786671 177.78,123 L177.78,123 Z M179.44,123 C179.44,123.506669 179.489999,123.993331 179.59,124.46 C179.69,124.926669 179.846666,125.333332 180.06,125.68 C180.273334,126.026668 180.553332,126.306666 180.9,126.52 C181.246668,126.733334 181.666664,126.84 182.16,126.84 C183.973342,126.853333 184.88,125.573346 184.88,123 C184.88,122.479997 184.83,121.986669 184.73,121.52 C184.629999,121.053331 184.473334,120.646668 184.26,120.3 C184.046666,119.953332 183.766668,119.676668 183.42,119.47 C183.073332,119.263332 182.653336,119.16 182.16,119.16 C180.346658,119.146667 179.44,120.426654 179.44,123 L179.44,123 Z M188.5,123 C188.5,121.306658 188.876663,120.010005 189.63,119.11 C190.383337,118.209996 191.46666,117.76 192.88,117.76 C193.62667,117.76 194.276664,117.883332 194.83,118.13 C195.383336,118.376668 195.839998,118.729998 196.2,119.19 C196.560002,119.650002 196.826666,120.20333 197,120.85 C197.173334,121.49667 197.26,122.213329 197.26,123 C197.26,124.693342 196.883337,125.989995 196.13,126.89 C195.376663,127.790004 194.29334,128.24 192.88,128.24 C192.13333,128.24 191.483336,128.116668 190.93,127.87 C190.376664,127.623332 189.920002,127.270002 189.56,126.81 C189.199998,126.349998 188.933334,125.79667 188.76,125.15 C188.586666,124.50333 188.5,123.786671 188.5,123 L188.5,123 Z M190.16,123 C190.16,123.506669 190.209999,123.993331 190.31,124.46 C190.41,124.926669 190.566666,125.333332 190.78,125.68 C190.993334,126.026668 191.273332,126.306666 191.62,126.52 C191.966668,126.733334 192.386664,126.84 192.88,126.84 C194.693342,126.853333 195.6,125.573346 195.6,123 C195.6,122.479997 195.550001,121.986669 195.45,121.52 C195.349999,121.053331 195.193334,120.646668 194.98,120.3 C194.766666,119.953332 194.486668,119.676668 194.14,119.47 C193.793332,119.263332 193.373336,119.16 192.88,119.16 C191.066658,119.146667 190.16,120.426654 190.16,123 L190.16,123 Z M207.46,124.56 C207.46,125.240003 207.466667,125.856664 207.48,126.41 C207.493333,126.963336 207.553333,127.506664 207.66,128.04 L206.58,128.04 L206.18,126.62 L206.1,126.62 C205.833332,127.086669 205.446669,127.473332 204.94,127.78 C204.433331,128.086668 203.840003,128.24 203.16,128.24 C201.82666,128.24 200.83667,127.820004 200.19,126.98 C199.54333,126.139996 199.22,124.826676 199.22,123.04 C199.22,121.333325 199.623329,120.036671 200.43,119.15 C201.236671,118.263329 202.34666,117.82 203.76,117.82 C204.253336,117.82 204.643332,117.846666 204.93,117.9 C205.216668,117.953334 205.526665,118.039999 205.86,118.16 L205.86,114 L207.46,114 L207.46,124.56 Z M203.42,126.84 C204.100003,126.84 204.639998,126.663335 205.04,126.31 C205.440002,125.956665 205.713333,125.420004 205.86,124.7 L205.86,119.74 C205.619999,119.553332 205.346668,119.42 205.04,119.34 C204.733332,119.26 204.326669,119.22 203.82,119.22 C202.899995,119.22 202.180003,119.52333 201.66,120.13 C201.139997,120.73667 200.88,121.70666 200.88,123.04 C200.88,123.586669 200.923333,124.093331 201.01,124.56 C201.096667,125.026669 201.239999,125.426665 201.44,125.76 C201.640001,126.093335 201.903332,126.356666 202.23,126.55 C202.556668,126.743334 202.953331,126.84 203.42,126.84 L203.42,126.84 Z M222.3,128 L222.3,122.3 C222.3,121.259995 222.150002,120.476669 221.85,119.95 C221.549999,119.423331 221.000004,119.16 220.2,119.16 C219.49333,119.16 218.910002,119.349998 218.45,119.73 C217.989998,120.110002 217.666668,120.586664 217.48,121.16 L217.48,128 L215.88,128 L215.88,118 L217,118 L217.3,119.22 L217.38,119.22 C217.700002,118.793331 218.129997,118.443335 218.67,118.17 C219.210003,117.896665 219.85333,117.76 220.6,117.76 C221.146669,117.76 221.626665,117.823333 222.04,117.95 C222.453335,118.076667 222.796665,118.299998 223.07,118.62 C223.343335,118.940002 223.549999,119.369997 223.69,119.91 C223.830001,120.450003 223.9,121.133329 223.9,121.96 L223.9,128 L222.3,128 Z M227.16,118 L228.76,118 L228.76,128 L227.16,128 L227.16,118 Z M226.82,114.96 C226.82,114.653332 226.923332,114.390001 227.13,114.17 C227.336668,113.949999 227.599998,113.84 227.92,113.84 C228.240002,113.84 228.513332,113.949999 228.74,114.17 C228.966668,114.390001 229.08,114.653332 229.08,114.96 C229.08,115.266668 228.966668,115.519999 228.74,115.72 C228.513332,115.920001 228.240002,116.02 227.92,116.02 C227.599998,116.02 227.336668,115.920001 227.13,115.72 C226.923332,115.519999 226.82,115.266668 226.82,114.96 L226.82,114.96 Z M239.84,128.46 C239.84,129.75334 239.49667,130.706664 238.81,131.32 C238.12333,131.933336 237.106673,132.24 235.76,132.24 C234.959996,132.24 234.316669,132.19 233.83,132.09 C233.343331,131.99 232.926668,131.860001 232.58,131.7 L233,130.34 C233.306668,130.460001 233.646665,130.573333 234.02,130.68 C234.393335,130.786667 234.879997,130.84 235.48,130.84 C236.040003,130.84 236.496665,130.79 236.85,130.69 C237.203335,130.59 237.486666,130.423335 237.7,130.19 C237.913334,129.956665 238.06,129.656668 238.14,129.29 C238.22,128.923331 238.26,128.486669 238.26,127.98 L238.26,127.02 L238.18,127.02 C237.913332,127.406669 237.573335,127.703332 237.16,127.91 C236.746665,128.116668 236.20667,128.22 235.54,128.22 C234.193327,128.22 233.203336,127.800004 232.57,126.96 C231.936663,126.119996 231.62,124.813342 231.62,123.04 C231.62,121.333325 232.026663,120.036671 232.84,119.15 C233.653337,118.263329 234.853325,117.82 236.44,117.82 C237.200004,117.82 237.849997,117.879999 238.39,118 C238.930003,118.120001 239.413331,118.259999 239.84,118.42 L239.84,128.46 Z M235.82,126.82 C236.500003,126.82 237.033331,126.650002 237.42,126.31 C237.806669,125.969998 238.079999,125.440004 238.24,124.72 L238.24,119.6 C237.706664,119.346665 237.026671,119.22 236.2,119.22 C235.293329,119.22 234.580003,119.526664 234.06,120.14 C233.539997,120.753336 233.28,121.713327 233.28,123.02 C233.28,123.580003 233.326666,124.093331 233.42,124.56 C233.513334,125.026669 233.659999,125.426665 233.86,125.76 C234.060001,126.093335 234.319998,126.353332 234.64,126.54 C234.960002,126.726668 235.353331,126.82 235.82,126.82 L235.82,126.82 Z M249.34,128 L249.34,122.3 C249.34,121.779997 249.31,121.323335 249.25,120.93 C249.19,120.536665 249.080001,120.210001 248.92,119.95 C248.759999,119.689999 248.543335,119.493334 248.27,119.36 C247.996665,119.226666 247.640002,119.16 247.2,119.16 C246.57333,119.16 246.006669,119.363331 245.5,119.77 C244.993331,120.176669 244.666667,120.699997 244.52,121.34 L244.52,128 L242.92,128 L242.92,114 L244.52,114 L244.52,119.12 L244.6,119.12 C244.946668,118.706665 245.363331,118.376668 245.85,118.13 C246.336669,117.883332 246.939996,117.76 247.66,117.76 C248.220003,117.76 248.706665,117.823333 249.12,117.95 C249.533335,118.076667 249.876665,118.299998 250.15,118.62 C250.423335,118.940002 250.623333,119.369997 250.75,119.91 C250.876667,120.450003 250.94,121.133329 250.94,121.96 L250.94,128 L249.34,128 Z M252.54,118 L254.1,118 L254.1,116.02 L255.7,115.56 L255.7,118 L258.42,118 L258.42,119.4 L255.7,119.4 L255.7,124.94 C255.7,125.633337 255.786666,126.123332 255.96,126.41 C256.133334,126.696668 256.426665,126.84 256.84,126.84 C257.186668,126.84 257.479999,126.803334 257.72,126.73 C257.960001,126.656666 258.226665,126.560001 258.52,126.44 L258.88,127.66 C258.519998,127.833334 258.126669,127.973333 257.7,128.08 C257.273331,128.186667 256.813336,128.24 256.32,128.24 C255.506663,128.24 254.933335,128.010002 254.6,127.55 C254.266665,127.089998 254.1,126.320005 254.1,125.24 L254.1,119.4 L252.54,119.4 L252.54,118 Z" id="Go-gentle-into-that-" fill="#424242" sketch:type="MSShapeGroup"></path>
            </g>
        </g>
    </g>
</svg>