<?xml version="1.0" encoding="UTF-8" standalone="no"?>
<svg width="433px" height="161px" viewBox="0 0 433 161" version="1.1" xmlns="http://www.w3.org/2000/svg" xmlns:xlink="http://www.w3.org/1999/xlink" xmlns:sketch="http://www.bohemiancoding.com/sketch/ns">
    <!-- Generator: Sketch Beta 3.3.2 (12041) - http://www.bohemiancoding.com/sketch -->
    <title>the + FUTURE + Back to</title>
    <desc>Created with Sketch Beta.</desc>
    <defs></defs>
    <g id="Page-1" stroke="none" stroke-width="1" fill="none" fill-rule="evenodd" sketch:type="MSPage">
        <g id="Desktop-HD" sketch:type="MSArtboardGroup" transform="translate(-543.000000, -296.000000)">
            <g id="the-+-FUTURE-+-Back-to" sketch:type="MSLayerGroup" transform="translate(543.000000, 296.000000)">
                <rect id="Rectangle-3" fill="#FFFFFF" sketch:type="MSShapeGroup" x="257" y="3" width="7" height="24"></rect>
                <path d="M188.424,7.388 L188.424,1.808 L183.312,1.808 L183.312,7.388 L180.216,7.388 L180.216,10.808 L183.312,10.808 L183.312,21.788 C183.312,22.7240047 183.467998,23.4799971 183.78,24.056 C184.092002,24.6320029 184.517997,25.0759984 185.058,25.388 C185.598003,25.7000016 186.221996,25.9099995 186.93,26.018 C187.638004,26.1260005 188.387996,26.18 189.18,26.18 C189.684003,26.18 190.199997,26.1680001 190.728,26.144 C191.256003,26.1199999 191.735998,26.0720004 192.168,26 L192.168,22.04 C191.927999,22.0880002 191.676001,22.1239999 191.412,22.148 C191.147999,22.1720001 190.872001,22.184 190.584,22.184 C189.719996,22.184 189.144001,22.0400014 188.856,21.752 C188.567999,21.4639986 188.424,20.8880043 188.424,20.024 L188.424,10.808 L192.168,10.808 L192.168,7.388 L188.424,7.388 Z M196.616,0.296 L196.616,26 L201.728,26 L201.728,16.244 C201.728,14.3479905 202.039997,12.9860041 202.664,12.158 C203.288003,11.3299959 204.295993,10.916 205.688,10.916 C206.912006,10.916 207.763998,11.2939962 208.244,12.05 C208.724002,12.8060038 208.964,13.9519923 208.964,15.488 L208.964,26 L214.076,26 L214.076,14.552 C214.076,13.3999942 213.974001,12.3500047 213.77,11.402 C213.565999,10.4539953 213.212003,9.6500033 212.708,8.99 C212.203997,8.3299967 211.514004,7.81400186 210.638,7.442 C209.761996,7.06999814 208.640007,6.884 207.272,6.884 C206.311995,6.884 205.328005,7.12999754 204.32,7.622 C203.311995,8.11400246 202.484003,8.8999946 201.836,9.98 L201.728,9.98 L201.728,0.296 L196.616,0.296 Z M232.492,14.696 L224.176,14.696 C224.2,14.3359982 224.277999,13.9280023 224.41,13.472 C224.542001,13.0159977 224.769998,12.584002 225.094,12.176 C225.418002,11.767998 225.849997,11.4260014 226.39,11.15 C226.930003,10.8739986 227.607996,10.736 228.424,10.736 C229.672006,10.736 230.601997,11.0719966 231.214,11.744 C231.826003,12.4160034 232.251999,13.3999935 232.492,14.696 L232.492,14.696 Z M224.176,17.936 L237.604,17.936 C237.7,16.4959928 237.580002,15.1160066 237.244,13.796 C236.907998,12.4759934 236.362004,11.3000052 235.606,10.268 C234.849996,9.23599484 233.884006,8.41400306 232.708,7.802 C231.531994,7.18999694 230.152008,6.884 228.568,6.884 C227.151993,6.884 225.862006,7.13599748 224.698,7.64 C223.533994,8.14400252 222.532004,8.83399562 221.692,9.71 C220.851996,10.5860044 220.204002,11.623994 219.748,12.824 C219.291998,14.024006 219.064,15.319993 219.064,16.712 C219.064,18.1520072 219.285998,19.471994 219.73,20.672 C220.174002,21.872006 220.803996,22.9039957 221.62,23.768 C222.436004,24.6320043 223.431994,25.2979977 224.608,25.766 C225.784006,26.2340023 227.103993,26.468 228.568,26.468 C230.680011,26.468 232.479993,25.9880048 233.968,25.028 C235.456007,24.0679952 236.559996,22.4720112 237.28,20.24 L232.78,20.24 C232.611999,20.8160029 232.156004,21.3619974 231.412,21.878 C230.667996,22.3940026 229.780005,22.652 228.748,22.652 C227.307993,22.652 226.204004,22.2800037 225.436,21.536 C224.667996,20.7919963 224.248,19.5920083 224.176,17.936 L224.176,17.936 Z" id="the" fill="#A5A5A5" sketch:type="MSShapeGroup"></path>
                <path d="M15.7,43.6 L0.7,115 L16.3,115 L22.6,85.5 L53.1,85.5 L55.7,73.3 L25.1,73.3 L28.6,56.8 L63.6,56.8 L66.5,43.6 L15.7,43.6 Z M130.9,85.1 L139.6,43.6 L123.9,43.6 L115,85.9 C114.399997,88.56668 113.750004,90.999989 113.05,93.2 C112.349997,95.400011 111.38334,97.2499925 110.15,98.75 C108.916661,100.250008 107.30001,101.416663 105.3,102.25 C103.29999,103.083337 100.700016,103.5 97.5000002,103.5 C94.7666532,103.5 92.5333422,103.16667 90.8000002,102.5 C89.0666582,101.83333 87.7000052,101.016672 86.7000002,100.05 C85.6999952,99.0833285 85.0166687,98.033339 84.6500002,96.9 C84.2833317,95.766661 84.1000002,94.766671 84.1000002,93.9 C84.1000002,93.299997 84.1499997,92.6166705 84.2500002,91.85 C84.3500007,91.0833295 84.4833327,90.266671 84.6500002,89.4 C84.8166677,88.533329 84.9833327,87.7166705 85.1500002,86.95 C85.3166677,86.1833295 85.4666662,85.500003 85.6000002,84.9 L94.3000002,43.6 L78.6000002,43.6 L69.9000002,84.9 C69.5666652,86.633342 69.2333352,88.3833245 68.9000002,90.15 C68.5666652,91.9166755 68.4000002,93.699991 68.4000002,95.5 C68.4000002,99.433353 69.2166587,102.749987 70.8500002,105.45 C72.4833417,108.150014 74.6166537,110.316659 77.2500002,111.95 C79.8833467,113.583341 82.8833167,114.766663 86.2500002,115.5 C89.6166837,116.233337 93.0333162,116.6 96.5000002,116.6 C102.033361,116.6 106.733314,115.916674 110.6,114.55 C114.466686,113.183326 117.73332,111.183346 120.4,108.55 C123.06668,105.916653 125.216659,102.633353 126.85,98.7 C128.483342,94.766647 129.833328,90.233359 130.9,85.1 L130.9,85.1 Z M170.8,56.8 L158.6,115 L174.4,115 L186.6,56.8 L208,56.8 L210.8,43.6 L151.2,43.6 L148.4,56.8 L170.8,56.8 Z M274.700001,85.1 L283.400001,43.6 L267.700001,43.6 L258.800001,85.9 C258.199998,88.56668 257.550004,90.999989 256.850001,93.2 C256.149997,95.400011 255.18334,97.2499925 253.950001,98.75 C252.716661,100.250008 251.100011,101.416663 249.100001,102.25 C247.099991,103.083337 244.500017,103.5 241.300001,103.5 C238.566654,103.5 236.333343,103.16667 234.600001,102.5 C232.866659,101.83333 231.500006,101.016672 230.500001,100.05 C229.499996,99.0833285 228.816669,98.033339 228.450001,96.9 C228.083332,95.766661 227.900001,94.766671 227.900001,93.9 C227.900001,93.299997 227.95,92.6166705 228.050001,91.85 C228.150001,91.0833295 228.283333,90.266671 228.450001,89.4 C228.616668,88.533329 228.783333,87.7166705 228.950001,86.95 C229.116668,86.1833295 229.266667,85.500003 229.400001,84.9 L238.100001,43.6 L222.400001,43.6 L213.700001,84.9 C213.366666,86.633342 213.033336,88.3833245 212.700001,90.15 C212.366666,91.9166755 212.200001,93.699991 212.200001,95.5 C212.200001,99.433353 213.016659,102.749987 214.650001,105.45 C216.283342,108.150014 218.416654,110.316659 221.050001,111.95 C223.683347,113.583341 226.683317,114.766663 230.050001,115.5 C233.416684,116.233337 236.833317,116.6 240.300001,116.6 C245.833362,116.6 250.533315,115.916674 254.400001,114.55 C258.266687,113.183326 261.533321,111.183346 264.200001,108.55 C266.866681,105.916653 269.016659,102.633353 270.650001,98.7 C272.283342,94.766647 273.633329,90.233359 274.700001,85.1 L274.700001,85.1 Z M310.400001,75.9 L314.600001,55.8 L329.500001,55.8 C331.033342,55.8 332.499994,55.899999 333.900001,56.1 C335.300008,56.300001 336.533329,56.699997 337.600001,57.3 C338.666673,57.900003 339.516664,58.7833275 340.150001,59.95 C340.783337,61.1166725 341.100001,62.666657 341.100001,64.6 C341.100001,66.60001 340.650005,68.3166595 339.750001,69.75 C338.849996,71.1833405 337.650008,72.3499955 336.150001,73.25 C334.649993,74.1500045 332.933344,74.8166645 331.000001,75.25 C329.066658,75.6833355 327.033345,75.9 324.900001,75.9 L310.400001,75.9 Z M301.400001,43.6 L286.500001,115 L302.100001,115 L308.000001,87.1 L322.800001,87.1 C324.333342,87.1 325.733328,87.2166655 327.000001,87.45 C328.266674,87.6833345 329.349996,88.13333 330.250001,88.8 C331.150005,89.46667 331.849998,90.3499945 332.350001,91.45 C332.850003,92.5500055 333.100001,93.966658 333.100001,95.7 C333.100001,98.100012 332.966669,100.516655 332.700001,102.95 C332.433333,105.383346 332.300001,107.799988 332.300001,110.2 C332.300001,111.000004 332.366667,111.78333 332.500001,112.55 C332.633335,113.316671 332.8,114.133329 333.000001,115 L348.300001,115 C347.899999,113.933328 347.633335,112.68334 347.500001,111.25 C347.366667,109.81666 347.300001,108.300008 347.300001,106.7 C347.300001,104.499989 347.383333,102.283344 347.550001,100.05 C347.716668,97.8166555 347.800001,95.900008 347.800001,94.3 C347.800001,91.433319 347.300006,88.8500115 346.300001,86.55 C345.299996,84.2499885 343.333349,82.633338 340.400001,81.7 L340.400001,81.5 C342.800013,81.166665 344.999991,80.433339 347.000001,79.3 C349.000011,78.166661 350.733327,76.7500085 352.200001,75.05 C353.666675,73.3499915 354.799997,71.400011 355.600001,69.2 C356.400005,66.999989 356.800001,64.700012 356.800001,62.3 C356.800001,58.833316 356.300006,55.900012 355.300001,53.5 C354.299996,51.099988 352.866677,49.1500075 351.000001,47.65 C349.133325,46.1499925 346.883347,45.0833365 344.250001,44.45 C341.616654,43.8166635 338.700017,43.533333 335.500001,43.6 L301.400001,43.6 Z M377.900001,43.6 L363.000001,115 L418.000001,115 L420.800001,101.8 L381.400001,101.8 L385.100001,84.3 L421.000001,84.3 L423.600001,72.1 L387.700001,72.1 L390.900001,56.8 L429.700001,56.8 L432.400001,43.6 L377.900001,43.6 Z" id="FUTURE" fill="#FFFFFF" sketch:type="MSShapeGroup"></path>
                <path d="M21.136,10.7 L21.136,4.688 L26.428,4.688 C26.9320025,4.688 27.4179977,4.72999958 27.886,4.814 C28.3540023,4.89800042 28.7679982,5.04799892 29.128,5.264 C29.4880018,5.48000108 29.7759989,5.77999808 29.992,6.164 C30.2080011,6.54800192 30.316,7.039997 30.316,7.64 C30.316,8.7200054 29.9920032,9.4999976 29.344,9.98 C28.6959968,10.4600024 27.868005,10.7 26.86,10.7 L21.136,10.7 Z M15.484,0.296 L15.484,26 L27.94,26 C29.0920058,26 30.2139945,25.8560014 31.306,25.568 C32.3980055,25.2799986 33.3699957,24.836003 34.222,24.236 C35.0740043,23.635997 35.7519975,22.8620047 36.256,21.914 C36.7600025,20.9659953 37.012,19.8440065 37.012,18.548 C37.012,16.939992 36.6220039,15.5660057 35.842,14.426 C35.0619961,13.2859943 33.8800079,12.4880023 32.296,12.032 C33.4480058,11.4799972 34.3179971,10.7720043 34.906,9.908 C35.4940029,9.04399568 35.788,7.96400648 35.788,6.668 C35.788,5.467994 35.590002,4.46000408 35.194,3.644 C34.797998,2.82799592 34.2400036,2.17400246 33.52,1.682 C32.7999964,1.18999754 31.936005,0.83600108 30.928,0.62 C29.919995,0.40399892 28.8040061,0.296 27.58,0.296 L15.484,0.296 Z M21.136,21.608 L21.136,14.552 L27.292,14.552 C28.5160061,14.552 29.4999963,14.8339972 30.244,15.398 C30.9880037,15.9620028 31.36,16.9039934 31.36,18.224 C31.36,18.8960034 31.2460011,19.4479978 31.018,19.88 C30.7899989,20.3120022 30.4840019,20.6539987 30.1,20.906 C29.7159981,21.1580013 29.2720025,21.3379995 28.768,21.446 C28.2639975,21.5540005 27.7360028,21.608 27.184,21.608 L21.136,21.608 Z M42.072,13.112 C42.1440004,11.911994 42.4439974,10.916004 42.972,10.124 C43.5000026,9.33199604 44.1719959,8.6960024 44.988,8.216 C45.8040041,7.7359976 46.7219949,7.39400102 47.742,7.19 C48.7620051,6.98599898 49.7879948,6.884 50.82,6.884 C51.7560047,6.884 52.7039952,6.94999934 53.664,7.082 C54.6240048,7.21400066 55.499996,7.47199808 56.292,7.856 C57.084004,8.24000192 57.7319975,8.77399658 58.236,9.458 C58.7400025,10.1420034 58.992,11.0479944 58.992,12.176 L58.992,21.86 C58.992,22.7000042 59.0399995,23.5039962 59.136,24.272 C59.2320005,25.0400038 59.3999988,25.6159981 59.64,26 L54.456,26 C54.3599995,25.7119986 54.2820003,25.4180015 54.222,25.118 C54.1619997,24.8179985 54.1200001,24.5120016 54.096,24.2 C53.2799959,25.0400042 52.3200055,25.6279983 51.216,25.964 C50.1119945,26.3000017 48.9840058,26.468 47.832,26.468 C46.9439956,26.468 46.1160038,26.3600011 45.348,26.144 C44.5799962,25.9279989 43.9080029,25.5920023 43.332,25.136 C42.7559971,24.6799977 42.3060016,24.1040035 41.982,23.408 C41.6579984,22.7119965 41.496,21.8840048 41.496,20.924 C41.496,19.8679947 41.6819981,18.9980034 42.054,18.314 C42.4260019,17.6299966 42.9059971,17.084002 43.494,16.676 C44.0820029,16.267998 44.7539962,15.962001 45.51,15.758 C46.2660038,15.553999 47.0279962,15.3920006 47.796,15.272 C48.5640038,15.1519994 49.3199963,15.0560004 50.064,14.984 C50.8080037,14.9119996 51.4679971,14.8040007 52.044,14.66 C52.6200029,14.5159993 53.0759983,14.3060014 53.412,14.03 C53.7480017,13.7539986 53.9040001,13.3520026 53.88,12.824 C53.88,12.2719972 53.7900009,11.8340016 53.61,11.51 C53.4299991,11.1859984 53.1900015,10.9340009 52.89,10.754 C52.5899985,10.5739991 52.242002,10.4540003 51.846,10.394 C51.449998,10.3339997 51.0240023,10.304 50.568,10.304 C49.559995,10.304 48.7680029,10.5199978 48.192,10.952 C47.6159971,11.3840022 47.2800005,12.103995 47.184,13.112 L42.072,13.112 Z M53.88,16.892 C53.6639989,17.084001 53.3940016,17.2339995 53.07,17.342 C52.7459984,17.4500005 52.3980019,17.5399996 52.026,17.612 C51.6539981,17.6840004 51.264002,17.7439998 50.856,17.792 C50.447998,17.8400002 50.040002,17.8999996 49.632,17.972 C49.2479981,18.0440004 48.8700019,18.1399994 48.498,18.26 C48.1259981,18.3800006 47.8020014,18.541999 47.526,18.746 C47.2499986,18.950001 47.0280008,19.2079984 46.86,19.52 C46.6919992,19.8320016 46.608,20.2279976 46.608,20.708 C46.608,21.1640023 46.6919992,21.5479984 46.86,21.86 C47.0280008,22.1720016 47.2559986,22.4179991 47.544,22.598 C47.8320014,22.7780009 48.1679981,22.9039996 48.552,22.976 C48.9360019,23.0480004 49.331998,23.084 49.74,23.084 C50.748005,23.084 51.5279972,22.9160017 52.08,22.58 C52.6320028,22.2439983 53.0399987,21.8420023 53.304,21.374 C53.5680013,20.9059977 53.7299997,20.4320024 53.79,19.952 C53.8500003,19.4719976 53.88,19.0880014 53.88,18.8 L53.88,16.892 Z M77.624,13.94 L82.628,13.94 C82.5559996,12.739994 82.2680025,11.7020044 81.764,10.826 C81.2599975,9.94999562 80.606004,9.21800294 79.802,8.63 C78.997996,8.04199706 78.0860051,7.60400144 77.066,7.316 C76.0459949,7.02799856 74.9840055,6.884 73.88,6.884 C72.3679924,6.884 71.0240059,7.13599748 69.848,7.64 C68.6719941,8.14400252 67.6760041,8.8459955 66.86,9.746 C66.0439959,10.6460045 65.4260021,11.7139938 65.006,12.95 C64.5859979,14.1860062 64.376,15.5239928 64.376,16.964 C64.376,18.356007 64.6039977,19.6339942 65.06,20.798 C65.5160023,21.9620058 66.1519959,22.9639958 66.968,23.804 C67.7840041,24.6440042 68.7739942,25.2979977 69.938,25.766 C71.1020058,26.2340023 72.379993,26.468 73.772,26.468 C76.2440124,26.468 78.2719921,25.8200065 79.856,24.524 C81.4400079,23.2279935 82.3999983,21.3440124 82.736,18.872 L77.804,18.872 C77.6359992,20.0240058 77.2220033,20.9419966 76.562,21.626 C75.9019967,22.3100034 74.9600061,22.652 73.736,22.652 C72.943996,22.652 72.2720028,22.4720018 71.72,22.112 C71.1679972,21.7519982 70.7300016,21.2900028 70.406,20.726 C70.0819984,20.1619972 69.8480007,19.5320035 69.704,18.836 C69.5599993,18.1399965 69.488,17.4560034 69.488,16.784 C69.488,16.0879965 69.5599993,15.3860035 69.704,14.678 C69.8480007,13.9699965 70.0939983,13.3220029 70.442,12.734 C70.7900017,12.1459971 71.2399972,11.6660019 71.792,11.294 C72.3440028,10.9219981 73.0279959,10.736 73.844,10.736 C76.0280109,10.736 77.2879983,11.8039893 77.624,13.94 L77.624,13.94 Z M88.084,0.296 L88.084,26 L93.196,26 L93.196,19.592 L95.176,17.684 L100.288,26 L106.48,26 L98.668,14.228 L105.688,7.388 L99.64,7.388 L93.196,14.084 L93.196,0.296 L88.084,0.296 Z M128.768,7.388 L128.768,1.808 L123.656,1.808 L123.656,7.388 L120.56,7.388 L120.56,10.808 L123.656,10.808 L123.656,21.788 C123.656,22.7240047 123.811998,23.4799971 124.124,24.056 C124.436002,24.6320029 124.861997,25.0759984 125.402,25.388 C125.942003,25.7000016 126.565996,25.9099995 127.274,26.018 C127.982004,26.1260005 128.731996,26.18 129.524,26.18 C130.028003,26.18 130.543997,26.1680001 131.072,26.144 C131.600003,26.1199999 132.079998,26.0720004 132.512,26 L132.512,22.04 C132.271999,22.0880002 132.020001,22.1239999 131.756,22.148 C131.491999,22.1720001 131.216001,22.184 130.928,22.184 C130.063996,22.184 129.488001,22.0400014 129.2,21.752 C128.911999,21.4639986 128.768,20.8880043 128.768,20.024 L128.768,10.808 L132.512,10.808 L132.512,7.388 L128.768,7.388 Z M141.496,16.712 C141.496,15.9679963 141.567999,15.2360036 141.712,14.516 C141.856001,13.7959964 142.101998,13.1600028 142.45,12.608 C142.798002,12.0559972 143.259997,11.6060017 143.836,11.258 C144.412003,10.9099983 145.131996,10.736 145.996,10.736 C146.860004,10.736 147.585997,10.9099983 148.174,11.258 C148.762003,11.6060017 149.229998,12.0559972 149.578,12.608 C149.926002,13.1600028 150.171999,13.7959964 150.316,14.516 C150.460001,15.2360036 150.532,15.9679963 150.532,16.712 C150.532,17.4560037 150.460001,18.1819965 150.316,18.89 C150.171999,19.5980035 149.926002,20.2339972 149.578,20.798 C149.229998,21.3620028 148.762003,21.8119983 148.174,22.148 C147.585997,22.4840017 146.860004,22.652 145.996,22.652 C145.131996,22.652 144.412003,22.4840017 143.836,22.148 C143.259997,21.8119983 142.798002,21.3620028 142.45,20.798 C142.101998,20.2339972 141.856001,19.5980035 141.712,18.89 C141.567999,18.1819965 141.496,17.4560037 141.496,16.712 L141.496,16.712 Z M136.384,16.712 C136.384,18.2000074 136.611998,19.543994 137.068,20.744 C137.524002,21.944006 138.171996,22.9699957 139.012,23.822 C139.852004,24.6740043 140.859994,25.3279977 142.036,25.784 C143.212006,26.2400023 144.531993,26.468 145.996,26.468 C147.460007,26.468 148.785994,26.2400023 149.974,25.784 C151.162006,25.3279977 152.175996,24.6740043 153.016,23.822 C153.856004,22.9699957 154.503998,21.944006 154.96,20.744 C155.416002,19.543994 155.644,18.2000074 155.644,16.712 C155.644,15.2239926 155.416002,13.8740061 154.96,12.662 C154.503998,11.4499939 153.856004,10.4180043 153.016,9.566 C152.175996,8.71399574 151.162006,8.05400234 149.974,7.586 C148.785994,7.11799766 147.460007,6.884 145.996,6.884 C144.531993,6.884 143.212006,7.11799766 142.036,7.586 C140.859994,8.05400234 139.852004,8.71399574 139.012,9.566 C138.171996,10.4180043 137.524002,11.4499939 137.068,12.662 C136.611998,13.8740061 136.384,15.2239926 136.384,16.712 L136.384,16.712 Z" id="Back-to" fill="#FFFFFF" sketch:type="MSShapeGroup"></path>
                <path d="M14.88,156 L12.96,156 L12.96,154.2 L12.912,154.2 C12.6079985,154.584002 12.2680019,154.911999 11.892,155.184 C11.5159981,155.456001 11.124002,155.683999 10.716,155.868 C10.307998,156.052001 9.90000204,156.188 9.492,156.276 C9.08399796,156.364 8.70400176,156.408 8.352,156.408 C7.11999384,156.408 6.03200472,156.216002 5.088,155.832 C4.14399528,155.447998 3.3520032,154.920003 2.712,154.248 C2.0719968,153.575997 1.58400168,152.784005 1.248,151.872 C0.91199832,150.959995 0.744,149.976005 0.744,148.92 C0.744,147.127991 1.01199732,145.572007 1.548,144.252 C2.08400268,142.931993 2.78799564,141.844004 3.66,140.988 C4.53200436,140.131996 5.51599452,139.496002 6.612,139.08 C7.70800548,138.663998 8.8159944,138.456 9.936,138.456 C10.944005,138.456 11.8839956,138.575999 12.756,138.816 C13.6280044,139.056001 14.3839968,139.415998 15.024,139.896 C15.6640032,140.376002 16.1679982,140.983996 16.536,141.72 C16.9040018,142.456004 17.088,143.327995 17.088,144.336 L14.088,144.336 C14.0239997,143.167994 13.6160038,142.304003 12.864,141.744 C12.1119962,141.183997 11.1040063,140.904 9.84,140.904 C8.81599488,140.904 7.9240038,141.135998 7.164,141.6 C6.4039962,142.064002 5.77200252,142.671996 5.268,143.424 C4.76399748,144.176004 4.38400128,145.023995 4.128,145.968 C3.87199872,146.912005 3.744,147.863995 3.744,148.824 C3.744,150.424008 4.15199592,151.679995 4.968,152.592 C5.78400408,153.504005 6.94399248,153.96 8.448,153.96 C9.18400368,153.96 9.83999712,153.844001 10.416,153.612 C10.9920029,153.379999 11.4919979,153.056002 11.916,152.64 C12.3400021,152.223998 12.6959986,151.728003 12.984,151.152 C13.2720014,150.575997 13.4959992,149.944003 13.656,149.256 L8.952,149.256 L9.432,146.976 L16.8,146.976 L14.88,156 Z M26.416,145.416 C25.7119965,145.416 25.1000026,145.591998 24.58,145.944 C24.0599974,146.296002 23.6240018,146.739997 23.272,147.276 C22.9199982,147.812003 22.6600008,148.407997 22.492,149.064 C22.3239992,149.720003 22.24,150.359997 22.24,150.984 C22.24,151.896005 22.4679977,152.655997 22.924,153.264 C23.3800023,153.872003 24.103995,154.176 25.096,154.176 C25.8000035,154.176 26.4119974,154.004002 26.932,153.66 C27.4520026,153.315998 27.8879982,152.876003 28.24,152.34 C28.5920018,151.803997 28.8519992,151.204003 29.02,150.54 C29.1880008,149.875997 29.272,149.232003 29.272,148.608 C29.272,147.695995 29.0440023,146.936003 28.588,146.328 C28.1319977,145.719997 27.408005,145.416 26.416,145.416 L26.416,145.416 Z M24.928,156.336 C23.1999914,156.336 21.8640047,155.868005 20.92,154.932 C19.9759953,153.995995 19.504,152.656009 19.504,150.912 C19.504,149.887995 19.6719983,148.916005 20.008,147.996 C20.3440017,147.075995 20.8199969,146.264004 21.436,145.56 C22.0520031,144.855996 22.7959956,144.296002 23.668,143.88 C24.5400044,143.463998 25.5119946,143.256 26.584,143.256 C28.3120086,143.256 29.6479953,143.707995 30.592,144.612 C31.5360047,145.516005 32.008,146.839991 32.008,148.584 C32.008,149.672005 31.8480016,150.687995 31.528,151.632 C31.2079984,152.576005 30.7400031,153.395997 30.124,154.092 C29.5079969,154.788003 28.7640044,155.335998 27.892,155.736 C27.0199956,156.136002 26.0320055,156.336 24.928,156.336 L24.928,156.336 Z M45.312,150.768 C45.312,151.184002 45.3599995,151.579998 45.456,151.956 C45.5520005,152.332002 45.703999,152.659999 45.912,152.94 C46.120001,153.220001 46.3879984,153.439999 46.716,153.6 C47.0440016,153.760001 47.4399977,153.84 47.904,153.84 C48.6400037,153.84 49.2679974,153.672002 49.788,153.336 C50.3080026,152.999998 50.7359983,152.568003 51.072,152.04 C51.4080017,151.511997 51.6519992,150.920003 51.804,150.264 C51.9560008,149.607997 52.032,148.968003 52.032,148.344 C52.032,147.431995 51.8000023,146.716003 51.336,146.196 C50.8719977,145.675997 50.1840046,145.416 49.272,145.416 C48.5999966,145.416 48.0160025,145.587998 47.52,145.932 C47.0239975,146.276002 46.6120016,146.711997 46.284,147.24 C45.9559984,147.768003 45.7120008,148.347997 45.552,148.98 C45.3919992,149.612003 45.312,150.207997 45.312,150.768 L45.312,150.768 Z M53.208,155.664 C52.999999,156.608005 52.7400016,157.415997 52.428,158.088 C52.1159984,158.760003 51.7160024,159.303998 51.228,159.72 C50.7399976,160.136002 50.1480035,160.439999 49.452,160.632 C48.7559965,160.824001 47.9200049,160.92 46.944,160.92 C46.2399965,160.92 45.5720032,160.848001 44.94,160.704 C44.3079968,160.559999 43.7480024,160.332002 43.26,160.02 C42.7719976,159.707998 42.3800015,159.300003 42.084,158.796 C41.7879985,158.291997 41.6320001,157.680004 41.616,156.96 L44.352,156.96 C44.3840002,157.664004 44.6679973,158.159999 45.204,158.448 C45.7400027,158.736001 46.3999961,158.88 47.184,158.88 C47.792003,158.88 48.295998,158.792001 48.696,158.616 C49.096002,158.439999 49.4279987,158.200002 49.692,157.896 C49.9560013,157.591998 50.1599993,157.228002 50.304,156.804 C50.4480007,156.379998 50.5759994,155.912003 50.688,155.4 L50.952,154.176 L50.904,154.128 C50.0399957,155.376006 48.8720074,156 47.4,156 C45.8479922,156 44.6560042,155.548005 43.824,154.644 C42.9919958,153.739995 42.576,152.496008 42.576,150.912 C42.576,149.983995 42.7159986,149.060005 42.996,148.14 C43.2760014,147.219995 43.6839973,146.400004 44.22,145.68 C44.7560027,144.959996 45.423996,144.376002 46.224,143.928 C47.024004,143.479998 47.9439948,143.256 48.984,143.256 C49.8960046,143.256 50.6799967,143.439998 51.336,143.808 C51.9920033,144.176002 52.4879983,144.791996 52.824,145.656 L52.872,145.656 L53.232,143.592 L55.824,143.592 L53.208,155.664 Z M67,148.704 C67.0160001,148.624 67.024,148.556 67.024,148.5 L67.024,148.32 L67.024,147.936 C67.024,147.199996 66.7920023,146.596002 66.328,146.124 C65.8639977,145.651998 65.2240041,145.416 64.408,145.416 C63.3839949,145.416 62.568003,145.723997 61.96,146.34 C61.351997,146.956003 60.9120014,147.743995 60.64,148.704 L67,148.704 Z M68.992,152.16 C68.5599978,153.616007 67.8320051,154.675997 66.808,155.34 C65.7839949,156.004003 64.5200075,156.336 63.016,156.336 C62.2319961,156.336 61.5080033,156.212001 60.844,155.964 C60.1799967,155.715999 59.6080024,155.356002 59.128,154.884 C58.6479976,154.411998 58.2720014,153.844003 58,153.18 C57.7279986,152.515997 57.592,151.760004 57.592,150.912 C57.592,149.951995 57.7439985,149.016005 58.048,148.104 C58.3520015,147.191995 58.7959971,146.376004 59.38,145.656 C59.9640029,144.935996 60.6839957,144.356002 61.54,143.916 C62.3960043,143.475998 63.3759945,143.256 64.48,143.256 C65.5840055,143.256 66.4799966,143.439998 67.168,143.808 C67.8560034,144.176002 68.3919981,144.639997 68.776,145.2 C69.1600019,145.760003 69.4199993,146.375997 69.556,147.048 C69.6920007,147.720003 69.76,148.359997 69.76,148.968 C69.76,149.272002 69.7440002,149.551999 69.712,149.808 C69.6799998,150.064001 69.6480002,150.295999 69.616,150.504 L60.376,150.504 C60.3599999,150.584 60.348,150.656 60.34,150.72 C60.332,150.784 60.328,150.848 60.328,150.912 L60.328,151.296 C60.328,152.160004 60.5559977,152.855997 61.012,153.384 C61.4680023,153.912003 62.2239947,154.176 63.28,154.176 C64.0160037,154.176 64.6479974,154.008002 65.176,153.672 C65.7040026,153.335998 66.063999,152.832003 66.256,152.16 L68.992,152.16 Z M73.976,143.592 L76.544,143.592 L76.16,145.392 L76.208,145.44 C76.7040025,144.751997 77.3239963,144.216002 78.068,143.832 C78.8120037,143.447998 79.6159957,143.256 80.48,143.256 C81.7280062,143.256 82.6439971,143.551997 83.228,144.144 C83.8120029,144.736003 84.104,145.535995 84.104,146.544 C84.104,146.768001 84.0960001,147.023999 84.08,147.312 C84.0639999,147.600001 84.0320002,147.855999 83.984,148.08 L82.328,156 L79.592,156 L81.176,148.344 C81.2240002,148.135999 81.2679998,147.936001 81.308,147.744 C81.3480002,147.551999 81.368,147.368001 81.368,147.192 C81.368,147.096 81.364,146.948001 81.356,146.748 C81.348,146.547999 81.2880006,146.348001 81.176,146.148 C81.0639994,145.947999 80.8760013,145.776001 80.612,145.632 C80.3479987,145.487999 79.9680025,145.416 79.472,145.416 C78.9279973,145.416 78.4440021,145.531999 78.02,145.764 C77.5959979,145.996001 77.2160017,146.279998 76.88,146.616 C76.5599984,146.936002 76.2840012,147.331998 76.052,147.804 C75.8199988,148.276002 75.6480006,148.767997 75.536,149.28 L74.144,156 L71.408,156 L73.976,143.592 Z M90.288,139.872 L92.952,139.872 L92.184,143.592 L94.656,143.592 L94.224,145.632 L91.752,145.632 L90.48,151.704 C90.4159997,151.976001 90.3600002,152.231999 90.312,152.472 C90.2639998,152.712001 90.24,152.903999 90.24,153.048 C90.24,153.320001 90.2999994,153.539999 90.42,153.708 C90.5400006,153.876001 90.8079979,153.96 91.224,153.96 C91.432001,153.96 91.6599988,153.956 91.908,153.948 C92.1560012,153.94 92.4159986,153.904 92.688,153.84 L92.232,155.856 C91.8799982,155.936 91.504002,156 91.104,156.048 C90.703998,156.096 90.3280018,156.12 89.976,156.12 C89.4799975,156.12 89.0720016,156.056001 88.752,155.928 C88.4319984,155.799999 88.1800009,155.628001 87.996,155.412 C87.8119991,155.195999 87.6840004,154.948001 87.612,154.668 C87.5399996,154.387999 87.504,154.104001 87.504,153.816 C87.504,153.575999 87.5239998,153.312001 87.564,153.024 C87.6040002,152.735999 87.6399998,152.536001 87.672,152.424 L89.088,145.632 L86.928,145.632 L87.36,143.592 L89.52,143.592 L90.288,139.872 Z M98.728,138.864 L101.464,138.864 L97.912,156 L95.176,156 L98.728,138.864 Z M111.896,148.704 C111.912,148.624 111.92,148.556 111.92,148.5 L111.92,148.32 L111.92,147.936 C111.92,147.199996 111.688002,146.596002 111.224,146.124 C110.759998,145.651998 110.120004,145.416 109.304,145.416 C108.279995,145.416 107.464003,145.723997 106.856,146.34 C106.247997,146.956003 105.808001,147.743995 105.536,148.704 L111.896,148.704 Z M113.888,152.16 C113.455998,153.616007 112.728005,154.675997 111.704,155.34 C110.679995,156.004003 109.416008,156.336 107.912,156.336 C107.127996,156.336 106.404003,156.212001 105.74,155.964 C105.075997,155.715999 104.504002,155.356002 104.024,154.884 C103.543998,154.411998 103.168001,153.844003 102.896,153.18 C102.623999,152.515997 102.488,151.760004 102.488,150.912 C102.488,149.951995 102.639998,149.016005 102.944,148.104 C103.248002,147.191995 103.691997,146.376004 104.276,145.656 C104.860003,144.935996 105.579996,144.356002 106.436,143.916 C107.292004,143.475998 108.271994,143.256 109.376,143.256 C110.480006,143.256 111.375997,143.439998 112.064,143.808 C112.752003,144.176002 113.287998,144.639997 113.672,145.2 C114.056002,145.760003 114.315999,146.375997 114.452,147.048 C114.588001,147.720003 114.656,148.359997 114.656,148.968 C114.656,149.272002 114.64,149.551999 114.608,149.808 C114.576,150.064001 114.544,150.295999 114.512,150.504 L105.272,150.504 C105.256,150.584 105.244,150.656 105.236,150.72 C105.228,150.784 105.224,150.848 105.224,150.912 L105.224,151.296 C105.224,152.160004 105.451998,152.855997 105.908,153.384 C106.364002,153.912003 107.119995,154.176 108.176,154.176 C108.912004,154.176 109.543997,154.008002 110.072,153.672 C110.600003,153.335998 110.959999,152.832003 111.152,152.16 L113.888,152.16 Z M127.528,138.864 L130.24,138.864 L129.712,141.456 L127,141.456 L127.528,138.864 Z M126.544,143.592 L129.28,143.592 L126.712,156 L123.976,156 L126.544,143.592 Z M133.328,143.592 L135.896,143.592 L135.512,145.392 L135.56,145.44 C136.056002,144.751997 136.675996,144.216002 137.42,143.832 C138.164004,143.447998 138.967996,143.256 139.832,143.256 C141.080006,143.256 141.995997,143.551997 142.58,144.144 C143.164003,144.736003 143.456,145.535995 143.456,146.544 C143.456,146.768001 143.448,147.023999 143.432,147.312 C143.416,147.600001 143.384,147.855999 143.336,148.08 L141.68,156 L138.944,156 L140.528,148.344 C140.576,148.135999 140.62,147.936001 140.66,147.744 C140.7,147.551999 140.72,147.368001 140.72,147.192 C140.72,147.096 140.716,146.948001 140.708,146.748 C140.7,146.547999 140.640001,146.348001 140.528,146.148 C140.415999,145.947999 140.228001,145.776001 139.964,145.632 C139.699999,145.487999 139.320002,145.416 138.824,145.416 C138.279997,145.416 137.796002,145.531999 137.372,145.764 C136.947998,145.996001 136.568002,146.279998 136.232,146.616 C135.911998,146.936002 135.636001,147.331998 135.404,147.804 C135.171999,148.276002 135.000001,148.767997 134.888,149.28 L133.496,156 L130.76,156 L133.328,143.592 Z M149.64,139.872 L152.304,139.872 L151.536,143.592 L154.008,143.592 L153.576,145.632 L151.104,145.632 L149.832,151.704 C149.768,151.976001 149.712,152.231999 149.664,152.472 C149.616,152.712001 149.592,152.903999 149.592,153.048 C149.592,153.320001 149.651999,153.539999 149.772,153.708 C149.892001,153.876001 150.159998,153.96 150.576,153.96 C150.784001,153.96 151.011999,153.956 151.26,153.948 C151.508001,153.94 151.767999,153.904 152.04,153.84 L151.584,155.856 C151.231998,155.936 150.856002,156 150.456,156.048 C150.055998,156.096 149.680002,156.12 149.328,156.12 C148.831998,156.12 148.424002,156.056001 148.104,155.928 C147.783998,155.799999 147.532001,155.628001 147.348,155.412 C147.163999,155.195999 147.036,154.948001 146.964,154.668 C146.892,154.387999 146.856,154.104001 146.856,153.816 C146.856,153.575999 146.876,153.312001 146.916,153.024 C146.956,152.735999 146.992,152.536001 147.024,152.424 L148.44,145.632 L146.28,145.632 L146.712,143.592 L148.872,143.592 L149.64,139.872 Z M162.016,145.416 C161.311996,145.416 160.700003,145.591998 160.18,145.944 C159.659997,146.296002 159.224002,146.739997 158.872,147.276 C158.519998,147.812003 158.260001,148.407997 158.092,149.064 C157.923999,149.720003 157.84,150.359997 157.84,150.984 C157.84,151.896005 158.067998,152.655997 158.524,153.264 C158.980002,153.872003 159.703995,154.176 160.696,154.176 C161.400004,154.176 162.011997,154.004002 162.532,153.66 C163.052003,153.315998 163.487998,152.876003 163.84,152.34 C164.192002,151.803997 164.451999,151.204003 164.62,150.54 C164.788001,149.875997 164.872,149.232003 164.872,148.608 C164.872,147.695995 164.644002,146.936003 164.188,146.328 C163.731998,145.719997 163.008005,145.416 162.016,145.416 L162.016,145.416 Z M160.528,156.336 C158.799991,156.336 157.464005,155.868005 156.52,154.932 C155.575995,153.995995 155.104,152.656009 155.104,150.912 C155.104,149.887995 155.271998,148.916005 155.608,147.996 C155.944002,147.075995 156.419997,146.264004 157.036,145.56 C157.652003,144.855996 158.395996,144.296002 159.268,143.88 C160.140004,143.463998 161.111995,143.256 162.184,143.256 C163.912009,143.256 165.247995,143.707995 166.192,144.612 C167.136005,145.516005 167.608,146.839991 167.608,148.584 C167.608,149.672005 167.448002,150.687995 167.128,151.632 C166.807998,152.576005 166.340003,153.395997 165.724,154.092 C165.107997,154.788003 164.364004,155.335998 163.492,155.736 C162.619996,156.136002 161.632006,156.336 160.528,156.336 L160.528,156.336 Z M181.536,139.872 L184.2,139.872 L183.432,143.592 L185.904,143.592 L185.472,145.632 L183,145.632 L181.728,151.704 C181.664,151.976001 181.608,152.231999 181.56,152.472 C181.512,152.712001 181.488,152.903999 181.488,153.048 C181.488,153.320001 181.547999,153.539999 181.668,153.708 C181.788001,153.876001 182.055998,153.96 182.472,153.96 C182.680001,153.96 182.907999,153.956 183.156,153.948 C183.404001,153.94 183.663999,153.904 183.936,153.84 L183.48,155.856 C183.127998,155.936 182.752002,156 182.352,156.048 C181.951998,156.096 181.576002,156.12 181.224,156.12 C180.727998,156.12 180.320002,156.056001 180,155.928 C179.679998,155.799999 179.428001,155.628001 179.244,155.412 C179.059999,155.195999 178.932,154.948001 178.86,154.668 C178.788,154.387999 178.752,154.104001 178.752,153.816 C178.752,153.575999 178.772,153.312001 178.812,153.024 C178.852,152.735999 178.888,152.536001 178.92,152.424 L180.336,145.632 L178.176,145.632 L178.608,143.592 L180.768,143.592 L181.536,139.872 Z M189.976,138.864 L192.712,138.864 L191.368,145.344 L191.416,145.344 C191.880002,144.719997 192.479996,144.216002 193.216,143.832 C193.952004,143.447998 194.711996,143.256 195.496,143.256 C196.744006,143.256 197.659997,143.551997 198.244,144.144 C198.828003,144.736003 199.12,145.535995 199.12,146.544 C199.12,146.768001 199.112,147.023999 199.096,147.312 C199.08,147.600001 199.048,147.855999 199,148.08 L197.344,156 L194.608,156 L196.192,148.344 C196.24,148.135999 196.284,147.936001 196.324,147.744 C196.364,147.551999 196.384,147.368001 196.384,147.192 C196.384,147.096 196.38,146.948001 196.372,146.748 C196.364,146.547999 196.304001,146.348001 196.192,146.148 C196.079999,145.947999 195.892001,145.776001 195.628,145.632 C195.363999,145.487999 194.984002,145.416 194.488,145.416 C193.943997,145.416 193.460002,145.531999 193.036,145.764 C192.611998,145.996001 192.232002,146.279998 191.896,146.616 C191.575998,146.936002 191.300001,147.331998 191.068,147.804 C190.835999,148.276002 190.664001,148.767997 190.552,149.28 L189.16,156 L186.424,156 L189.976,138.864 Z M204.008,152.592 C204.008,152.896002 204.075999,153.147999 204.212,153.348 C204.348001,153.548001 204.519999,153.707999 204.728,153.828 C204.936001,153.948001 205.167999,154.036 205.424,154.092 C205.680001,154.148 205.935999,154.176 206.192,154.176 C206.864003,154.176 207.427998,154.064001 207.884,153.84 C208.340002,153.615999 208.715999,153.312002 209.012,152.928 C209.308001,152.543998 209.539999,152.092003 209.708,151.572 C209.876001,151.051997 210.008,150.496003 210.104,149.904 L210.056,149.856 C209.863999,150.048001 209.608002,150.184 209.288,150.264 C208.967998,150.344 208.656002,150.4 208.352,150.432 C207.967998,150.464 207.524003,150.496 207.02,150.528 C206.515997,150.56 206.044002,150.643999 205.604,150.78 C205.163998,150.916001 204.788002,151.123999 204.476,151.404 C204.163998,151.684001 204.008,152.079997 204.008,152.592 L204.008,152.592 Z M212.24,152.4 C212.192,152.624001 212.14,152.839999 212.084,153.048 C212.028,153.256001 212,153.447999 212,153.624 C212,153.800001 212.04,153.936 212.12,154.032 C212.2,154.128 212.351999,154.176 212.576,154.176 C212.736001,154.176 212.895999,154.156 213.056,154.116 C213.216001,154.076 213.375999,154.048 213.536,154.032 L213.104,156 C212.751998,156.08 212.400002,156.156 212.048,156.228 C211.695998,156.3 211.336002,156.336 210.968,156.336 C210.503998,156.336 210.120002,156.192001 209.816,155.904 C209.511998,155.615999 209.344,155.232002 209.312,154.752 C208.767997,155.296003 208.128004,155.695999 207.392,155.952 C206.655996,156.208001 205.904004,156.336 205.136,156.336 C204.623997,156.336 204.136002,156.264001 203.672,156.12 C203.207998,155.975999 202.796002,155.768001 202.436,155.496 C202.075998,155.223999 201.792001,154.880002 201.584,154.464 C201.375999,154.047998 201.272,153.568003 201.272,153.024 C201.272,152.255996 201.415999,151.612003 201.704,151.092 C201.992001,150.571997 202.375998,150.144002 202.856,149.808 C203.336002,149.471998 203.887997,149.224001 204.512,149.064 C205.136003,148.903999 205.791997,148.8 206.48,148.752 C207.408005,148.688 208.319996,148.616 209.216,148.536 C209.712002,148.504 210.075999,148.340001 210.308,148.044 C210.540001,147.747999 210.656,147.368002 210.656,146.904 C210.656,146.311997 210.448002,145.916001 210.032,145.716 C209.615998,145.515999 209.128003,145.416 208.568,145.416 C207.799996,145.416 207.140003,145.547999 206.588,145.812 C206.035997,146.076001 205.664001,146.591996 205.472,147.36 L202.88,147.36 C203.024001,146.591996 203.271998,145.948003 203.624,145.428 C203.976002,144.907997 204.407997,144.484002 204.92,144.156 C205.432003,143.827998 206.011997,143.596001 206.66,143.46 C207.308003,143.323999 207.999996,143.256 208.736,143.256 C209.856006,143.256 210.731997,143.363999 211.364,143.58 C211.996003,143.796001 212.459999,144.055998 212.756,144.36 C213.052001,144.664002 213.232,144.979998 213.296,145.308 C213.36,145.636002 213.392,145.911999 213.392,146.136 C213.392,146.680003 213.312001,147.303996 213.152,148.008 L212.24,152.4 Z M219.648,139.872 L222.312,139.872 L221.544,143.592 L224.016,143.592 L223.584,145.632 L221.112,145.632 L219.84,151.704 C219.776,151.976001 219.72,152.231999 219.672,152.472 C219.624,152.712001 219.6,152.903999 219.6,153.048 C219.6,153.320001 219.659999,153.539999 219.78,153.708 C219.900001,153.876001 220.167998,153.96 220.584,153.96 C220.792001,153.96 221.019999,153.956 221.268,153.948 C221.516001,153.94 221.775999,153.904 222.048,153.84 L221.592,155.856 C221.239998,155.936 220.864002,156 220.464,156.048 C220.063998,156.096 219.688002,156.12 219.336,156.12 C218.839998,156.12 218.432002,156.056001 218.112,155.928 C217.791998,155.799999 217.540001,155.628001 217.356,155.412 C217.171999,155.195999 217.044,154.948001 216.972,154.668 C216.9,154.387999 216.864,154.104001 216.864,153.816 C216.864,153.575999 216.884,153.312001 216.924,153.024 C216.964,152.735999 217,152.536001 217.032,152.424 L218.448,145.632 L216.288,145.632 L216.72,143.592 L218.88,143.592 L219.648,139.872 Z M235.688,150.768 C235.688,151.184002 235.736,151.579998 235.832,151.956 C235.928,152.332002 236.079999,152.659999 236.288,152.94 C236.496001,153.220001 236.763998,153.439999 237.092,153.6 C237.420002,153.760001 237.815998,153.84 238.28,153.84 C239.016004,153.84 239.643997,153.672002 240.164,153.336 C240.684003,152.999998 241.111998,152.568003 241.448,152.04 C241.784002,151.511997 242.027999,150.920003 242.18,150.264 C242.332001,149.607997 242.408,148.968003 242.408,148.344 C242.408,147.431995 242.176002,146.716003 241.712,146.196 C241.247998,145.675997 240.560005,145.416 239.648,145.416 C238.975997,145.416 238.392002,145.587998 237.896,145.932 C237.399998,146.276002 236.988002,146.711997 236.66,147.24 C236.331998,147.768003 236.088001,148.347997 235.928,148.98 C235.767999,149.612003 235.688,150.207997 235.688,150.768 L235.688,150.768 Z M243.584,155.664 C243.375999,156.608005 243.116002,157.415997 242.804,158.088 C242.491998,158.760003 242.092002,159.303998 241.604,159.72 C241.115998,160.136002 240.524003,160.439999 239.828,160.632 C239.131997,160.824001 238.296005,160.92 237.32,160.92 C236.615996,160.92 235.948003,160.848001 235.316,160.704 C234.683997,160.559999 234.124002,160.332002 233.636,160.02 C233.147998,159.707998 232.756001,159.300003 232.46,158.796 C232.163999,158.291997 232.008,157.680004 231.992,156.96 L234.728,156.96 C234.76,157.664004 235.043997,158.159999 235.58,158.448 C236.116003,158.736001 236.775996,158.88 237.56,158.88 C238.168003,158.88 238.671998,158.792001 239.072,158.616 C239.472002,158.439999 239.803999,158.200002 240.068,157.896 C240.332001,157.591998 240.535999,157.228002 240.68,156.804 C240.824001,156.379998 240.951999,155.912003 241.064,155.4 L241.328,154.176 L241.28,154.128 C240.415996,155.376006 239.248007,156 237.776,156 C236.223992,156 235.032004,155.548005 234.2,154.644 C233.367996,153.739995 232.952,152.496008 232.952,150.912 C232.952,149.983995 233.091999,149.060005 233.372,148.14 C233.652001,147.219995 234.059997,146.400004 234.596,145.68 C235.132003,144.959996 235.799996,144.376002 236.6,143.928 C237.400004,143.479998 238.319995,143.256 239.36,143.256 C240.272005,143.256 241.055997,143.439998 241.712,143.808 C242.368003,144.176002 242.863998,144.791996 243.2,145.656 L243.248,145.656 L243.608,143.592 L246.2,143.592 L243.584,155.664 Z M254.928,145.416 C254.223996,145.416 253.612003,145.591998 253.092,145.944 C252.571997,146.296002 252.136002,146.739997 251.784,147.276 C251.431998,147.812003 251.172001,148.407997 251.004,149.064 C250.835999,149.720003 250.752,150.359997 250.752,150.984 C250.752,151.896005 250.979998,152.655997 251.436,153.264 C251.892002,153.872003 252.615995,154.176 253.608,154.176 C254.312004,154.176 254.923997,154.004002 255.444,153.66 C255.964003,153.315998 256.399998,152.876003 256.752,152.34 C257.104002,151.803997 257.363999,151.204003 257.532,150.54 C257.700001,149.875997 257.784,149.232003 257.784,148.608 C257.784,147.695995 257.556002,146.936003 257.1,146.328 C256.643998,145.719997 255.920005,145.416 254.928,145.416 L254.928,145.416 Z M253.44,156.336 C251.711991,156.336 250.376005,155.868005 249.432,154.932 C248.487995,153.995995 248.016,152.656009 248.016,150.912 C248.016,149.887995 248.183998,148.916005 248.52,147.996 C248.856002,147.075995 249.331997,146.264004 249.948,145.56 C250.564003,144.855996 251.307996,144.296002 252.18,143.88 C253.052004,143.463998 254.023995,143.256 255.096,143.256 C256.824009,143.256 258.159995,143.707995 259.104,144.612 C260.048005,145.516005 260.52,146.839991 260.52,148.584 C260.52,149.672005 260.360002,150.687995 260.04,151.632 C259.719998,152.576005 259.252003,153.395997 258.636,154.092 C258.019997,154.788003 257.276004,155.335998 256.404,155.736 C255.531996,156.136002 254.544006,156.336 253.44,156.336 L253.44,156.336 Z M270.16,145.416 C269.455996,145.416 268.844003,145.591998 268.324,145.944 C267.803997,146.296002 267.368002,146.739997 267.016,147.276 C266.663998,147.812003 266.404001,148.407997 266.236,149.064 C266.067999,149.720003 265.984,150.359997 265.984,150.984 C265.984,151.896005 266.211998,152.655997 266.668,153.264 C267.124002,153.872003 267.847995,154.176 268.84,154.176 C269.544004,154.176 270.155997,154.004002 270.676,153.66 C271.196003,153.315998 271.631998,152.876003 271.984,152.34 C272.336002,151.803997 272.595999,151.204003 272.764,150.54 C272.932001,149.875997 273.016,149.232003 273.016,148.608 C273.016,147.695995 272.788002,146.936003 272.332,146.328 C271.875998,145.719997 271.152005,145.416 270.16,145.416 L270.16,145.416 Z M268.672,156.336 C266.943991,156.336 265.608005,155.868005 264.664,154.932 C263.719995,153.995995 263.248,152.656009 263.248,150.912 C263.248,149.887995 263.415998,148.916005 263.752,147.996 C264.088002,147.075995 264.563997,146.264004 265.18,145.56 C265.796003,144.855996 266.539996,144.296002 267.412,143.88 C268.284004,143.463998 269.255995,143.256 270.328,143.256 C272.056009,143.256 273.391995,143.707995 274.336,144.612 C275.280005,145.516005 275.752,146.839991 275.752,148.584 C275.752,149.672005 275.592002,150.687995 275.272,151.632 C274.951998,152.576005 274.484003,153.395997 273.868,154.092 C273.251997,154.788003 272.508004,155.335998 271.636,155.736 C270.763996,156.136002 269.776006,156.336 268.672,156.336 L268.672,156.336 Z M289.424,156 L286.808,156 L287.192,154.32 L287.144,154.272 C286.599997,155.072004 286.000003,155.615999 285.344,155.904 C284.687997,156.192001 283.992004,156.336 283.256,156.336 C282.903998,156.336 282.456003,156.288 281.912,156.192 C281.367997,156.096 280.836003,155.876002 280.316,155.532 C279.795997,155.187998 279.352002,154.680003 278.984,154.008 C278.615998,153.335997 278.432,152.416006 278.432,151.248 C278.432,150.239995 278.583998,149.260005 278.888,148.308 C279.192002,147.355995 279.631997,146.504004 280.208,145.752 C280.784003,144.999996 281.487996,144.396002 282.32,143.94 C283.152004,143.483998 284.103995,143.256 285.176,143.256 C286.008004,143.256 286.759997,143.407998 287.432,143.712 C288.104003,144.016002 288.599998,144.543996 288.92,145.296 L288.968,145.296 L290.336,138.864 L293.072,138.864 L289.424,156 Z M288.248,148.392 C288.248,147.991998 288.196001,147.608002 288.092,147.24 C287.987999,146.871998 287.828001,146.556001 287.612,146.292 C287.395999,146.027999 287.112002,145.816001 286.76,145.656 C286.407998,145.495999 285.992002,145.416 285.512,145.416 C284.743996,145.416 284.088003,145.587998 283.544,145.932 C282.999997,146.276002 282.552002,146.727997 282.2,147.288 C281.847998,147.848003 281.588001,148.475997 281.42,149.172 C281.251999,149.868003 281.168,150.559997 281.168,151.248 C281.168,152.176005 281.399998,152.895997 281.864,153.408 C282.328002,153.920003 283.039995,154.176 284,154.176 C284.704004,154.176 285.319997,153.992002 285.848,153.624 C286.376003,153.255998 286.819998,152.788003 287.18,152.22 C287.540002,151.651997 287.807999,151.028003 287.984,150.348 C288.160001,149.667997 288.248,149.016003 288.248,148.392 L288.248,148.392 Z M303.808,143.592 L306.376,143.592 L305.992,145.392 L306.04,145.44 C306.536002,144.751997 307.155996,144.216002 307.9,143.832 C308.644004,143.447998 309.447996,143.256 310.312,143.256 C311.560006,143.256 312.475997,143.551997 313.06,144.144 C313.644003,144.736003 313.936,145.535995 313.936,146.544 C313.936,146.768001 313.928,147.023999 313.912,147.312 C313.896,147.600001 313.864,147.855999 313.816,148.08 L312.16,156 L309.424,156 L311.008,148.344 C311.056,148.135999 311.1,147.936001 311.14,147.744 C311.18,147.551999 311.2,147.368001 311.2,147.192 C311.2,147.096 311.196,146.948001 311.188,146.748 C311.18,146.547999 311.120001,146.348001 311.008,146.148 C310.895999,145.947999 310.708001,145.776001 310.444,145.632 C310.179999,145.487999 309.800002,145.416 309.304,145.416 C308.759997,145.416 308.276002,145.531999 307.852,145.764 C307.427998,145.996001 307.048002,146.279998 306.712,146.616 C306.391998,146.936002 306.116001,147.331998 305.884,147.804 C305.651999,148.276002 305.480001,148.767997 305.368,149.28 L303.976,156 L301.24,156 L303.808,143.592 Z M319.568,138.864 L322.28,138.864 L321.752,141.456 L319.04,141.456 L319.568,138.864 Z M318.584,143.592 L321.32,143.592 L318.752,156 L316.016,156 L318.584,143.592 Z M326.28,150.768 C326.28,151.184002 326.328,151.579998 326.424,151.956 C326.52,152.332002 326.671999,152.659999 326.88,152.94 C327.088001,153.220001 327.355998,153.439999 327.684,153.6 C328.012002,153.760001 328.407998,153.84 328.872,153.84 C329.608004,153.84 330.235997,153.672002 330.756,153.336 C331.276003,152.999998 331.703998,152.568003 332.04,152.04 C332.376002,151.511997 332.619999,150.920003 332.772,150.264 C332.924001,149.607997 333,148.968003 333,148.344 C333,147.431995 332.768002,146.716003 332.304,146.196 C331.839998,145.675997 331.152005,145.416 330.24,145.416 C329.567997,145.416 328.984002,145.587998 328.488,145.932 C327.991998,146.276002 327.580002,146.711997 327.252,147.24 C326.923998,147.768003 326.680001,148.347997 326.52,148.98 C326.359999,149.612003 326.28,150.207997 326.28,150.768 L326.28,150.768 Z M334.176,155.664 C333.967999,156.608005 333.708002,157.415997 333.396,158.088 C333.083998,158.760003 332.684002,159.303998 332.196,159.72 C331.707998,160.136002 331.116003,160.439999 330.42,160.632 C329.723997,160.824001 328.888005,160.92 327.912,160.92 C327.207996,160.92 326.540003,160.848001 325.908,160.704 C325.275997,160.559999 324.716002,160.332002 324.228,160.02 C323.739998,159.707998 323.348001,159.300003 323.052,158.796 C322.755999,158.291997 322.6,157.680004 322.584,156.96 L325.32,156.96 C325.352,157.664004 325.635997,158.159999 326.172,158.448 C326.708003,158.736001 327.367996,158.88 328.152,158.88 C328.760003,158.88 329.263998,158.792001 329.664,158.616 C330.064002,158.439999 330.395999,158.200002 330.66,157.896 C330.924001,157.591998 331.127999,157.228002 331.272,156.804 C331.416001,156.379998 331.543999,155.912003 331.656,155.4 L331.92,154.176 L331.872,154.128 C331.007996,155.376006 329.840007,156 328.368,156 C326.815992,156 325.624004,155.548005 324.792,154.644 C323.959996,153.739995 323.544,152.496008 323.544,150.912 C323.544,149.983995 323.683999,149.060005 323.964,148.14 C324.244001,147.219995 324.651997,146.400004 325.188,145.68 C325.724003,144.959996 326.391996,144.376002 327.192,143.928 C327.992004,143.479998 328.911995,143.256 329.952,143.256 C330.864005,143.256 331.647997,143.439998 332.304,143.808 C332.960003,144.176002 333.455998,144.791996 333.792,145.656 L333.84,145.656 L334.2,143.592 L336.792,143.592 L334.176,155.664 Z M341.584,138.864 L344.32,138.864 L342.976,145.344 L343.024,145.344 C343.488002,144.719997 344.087996,144.216002 344.824,143.832 C345.560004,143.447998 346.319996,143.256 347.104,143.256 C348.352006,143.256 349.267997,143.551997 349.852,144.144 C350.436003,144.736003 350.728,145.535995 350.728,146.544 C350.728,146.768001 350.72,147.023999 350.704,147.312 C350.688,147.600001 350.656,147.855999 350.608,148.08 L348.952,156 L346.216,156 L347.8,148.344 C347.848,148.135999 347.892,147.936001 347.932,147.744 C347.972,147.551999 347.992,147.368001 347.992,147.192 C347.992,147.096 347.988,146.948001 347.98,146.748 C347.972,146.547999 347.912001,146.348001 347.8,146.148 C347.687999,145.947999 347.500001,145.776001 347.236,145.632 C346.971999,145.487999 346.592002,145.416 346.096,145.416 C345.551997,145.416 345.068002,145.531999 344.644,145.764 C344.219998,145.996001 343.840002,146.279998 343.504,146.616 C343.183998,146.936002 342.908001,147.331998 342.676,147.804 C342.443999,148.276002 342.272001,148.767997 342.16,149.28 L340.768,156 L338.032,156 L341.584,138.864 Z M356.912,139.872 L359.576,139.872 L358.808,143.592 L361.28,143.592 L360.848,145.632 L358.376,145.632 L357.104,151.704 C357.04,151.976001 356.984,152.231999 356.936,152.472 C356.888,152.712001 356.864,152.903999 356.864,153.048 C356.864,153.320001 356.923999,153.539999 357.044,153.708 C357.164001,153.876001 357.431998,153.96 357.848,153.96 C358.056001,153.96 358.283999,153.956 358.532,153.948 C358.780001,153.94 359.039999,153.904 359.312,153.84 L358.856,155.856 C358.503998,155.936 358.128002,156 357.728,156.048 C357.327998,156.096 356.952002,156.12 356.6,156.12 C356.103998,156.12 355.696002,156.056001 355.376,155.928 C355.055998,155.799999 354.804001,155.628001 354.62,155.412 C354.435999,155.195999 354.308,154.948001 354.236,154.668 C354.164,154.387999 354.128,154.104001 354.128,153.816 C354.128,153.575999 354.148,153.312001 354.188,153.024 C354.228,152.735999 354.264,152.536001 354.296,152.424 L355.712,145.632 L353.552,145.632 L353.984,143.592 L356.144,143.592 L356.912,139.872 Z" id="Go-gentle-into-that-" fill="#878787" sketch:type="MSShapeGroup"></path>
                <path d="M283.484,1.296 L283.484,27 L289.136,27 L289.136,16.38 L299.9,16.38 L299.9,11.988 L289.136,11.988 L289.136,6.048 L301.556,6.048 L301.556,1.296 L283.484,1.296 Z M304.292,8.388 L304.292,27 L309.404,27 L309.404,18.612 C309.404,17.7719958 309.487999,16.9920036 309.656,16.272 C309.824001,15.5519964 310.105998,14.9220027 310.502,14.382 C310.898002,13.8419973 311.419997,13.4160016 312.068,13.104 C312.716003,12.7919984 313.507995,12.636 314.444,12.636 C314.756002,12.636 315.079998,12.6539998 315.416,12.69 C315.752002,12.7260002 316.039999,12.7679998 316.28,12.816 L316.28,8.064 C315.871998,7.9439994 315.500002,7.884 315.164,7.884 C314.515997,7.884 313.892003,7.97999904 313.292,8.172 C312.691997,8.36400096 312.128003,8.63399826 311.6,8.982 C311.071997,9.33000174 310.604002,9.74999754 310.196,10.242 C309.787998,10.7340025 309.464001,11.2679971 309.224,11.844 L309.152,11.844 L309.152,8.388 L304.292,8.388 Z M330.176,15.696 L321.86,15.696 C321.884,15.3359982 321.961999,14.9280023 322.094,14.472 C322.226001,14.0159977 322.453998,13.584002 322.778,13.176 C323.102002,12.767998 323.533997,12.4260014 324.074,12.15 C324.614003,11.8739986 325.291996,11.736 326.108,11.736 C327.356006,11.736 328.285997,12.0719966 328.898,12.744 C329.510003,13.4160034 329.935999,14.3999935 330.176,15.696 L330.176,15.696 Z M321.86,18.936 L335.288,18.936 C335.384,17.4959928 335.264002,16.1160066 334.928,14.796 C334.591998,13.4759934 334.046004,12.3000052 333.29,11.268 C332.533996,10.2359948 331.568006,9.41400306 330.392,8.802 C329.215994,8.18999694 327.836008,7.884 326.252,7.884 C324.835993,7.884 323.546006,8.13599748 322.382,8.64 C321.217994,9.14400252 320.216004,9.83399562 319.376,10.71 C318.535996,11.5860044 317.888002,12.623994 317.432,13.824 C316.975998,15.024006 316.748,16.319993 316.748,17.712 C316.748,19.1520072 316.969998,20.471994 317.414,21.672 C317.858002,22.872006 318.487996,23.9039957 319.304,24.768 C320.120004,25.6320043 321.115994,26.2979977 322.292,26.766 C323.468006,27.2340023 324.787993,27.468 326.252,27.468 C328.364011,27.468 330.163993,26.9880048 331.652,26.028 C333.140007,25.0679952 334.243996,23.4720112 334.964,21.24 L330.464,21.24 C330.295999,21.8160029 329.840004,22.3619974 329.096,22.878 C328.351996,23.3940026 327.464005,23.652 326.432,23.652 C324.991993,23.652 323.888004,23.2800037 323.12,22.536 C322.351996,21.7919963 321.932,20.5920083 321.86,18.936 L321.86,18.936 Z M350.84,15.696 L342.524,15.696 C342.548,15.3359982 342.625999,14.9280023 342.758,14.472 C342.890001,14.0159977 343.117998,13.584002 343.442,13.176 C343.766002,12.767998 344.197997,12.4260014 344.738,12.15 C345.278003,11.8739986 345.955996,11.736 346.772,11.736 C348.020006,11.736 348.949997,12.0719966 349.562,12.744 C350.174003,13.4160034 350.599999,14.3999935 350.84,15.696 L350.84,15.696 Z M342.524,18.936 L355.952,18.936 C356.048,17.4959928 355.928002,16.1160066 355.592,14.796 C355.255998,13.4759934 354.710004,12.3000052 353.954,11.268 C353.197996,10.2359948 352.232006,9.41400306 351.056,8.802 C349.879994,8.18999694 348.500008,7.884 346.916,7.884 C345.499993,7.884 344.210006,8.13599748 343.046,8.64 C341.881994,9.14400252 340.880004,9.83399562 340.04,10.71 C339.199996,11.5860044 338.552002,12.623994 338.096,13.824 C337.639998,15.024006 337.412,16.319993 337.412,17.712 C337.412,19.1520072 337.633998,20.471994 338.078,21.672 C338.522002,22.872006 339.151996,23.9039957 339.968,24.768 C340.784004,25.6320043 341.779994,26.2979977 342.956,26.766 C344.132006,27.2340023 345.451993,27.468 346.916,27.468 C349.028011,27.468 350.827993,26.9880048 352.316,26.028 C353.804007,25.0679952 354.907996,23.4720112 355.628,21.24 L351.128,21.24 C350.959999,21.8160029 350.504004,22.3619974 349.76,22.878 C349.015996,23.3940026 348.128005,23.652 347.096,23.652 C345.655993,23.652 344.552004,23.2800037 343.784,22.536 C343.015996,21.7919963 342.596,20.5920083 342.524,18.936 L342.524,18.936 Z M372.188,17.64 C372.188,18.4080038 372.116001,19.1519964 371.972,19.872 C371.827999,20.5920036 371.588002,21.2339972 371.252,21.798 C370.915998,22.3620028 370.466003,22.8119983 369.902,23.148 C369.337997,23.4840017 368.636004,23.652 367.796,23.652 C367.003996,23.652 366.326003,23.4780017 365.762,23.13 C365.197997,22.7819983 364.730002,22.3260028 364.358,21.762 C363.985998,21.1979972 363.716001,20.5560036 363.548,19.836 C363.379999,19.1159964 363.296,18.3960036 363.296,17.676 C363.296,16.9079962 363.373999,16.1700035 363.53,15.462 C363.686001,14.7539965 363.937998,14.1240028 364.286,13.572 C364.634002,13.0199972 365.095997,12.5760017 365.672,12.24 C366.248003,11.9039983 366.955996,11.736 367.796,11.736 C368.636004,11.736 369.331997,11.9039983 369.884,12.24 C370.436003,12.5760017 370.885998,13.0139973 371.234,13.554 C371.582002,14.0940027 371.827999,14.7179965 371.972,15.426 C372.116001,16.1340035 372.188,16.8719962 372.188,17.64 L372.188,17.64 Z M372.26,24.624 L372.26,27 L377.12,27 L377.12,1.296 L372.008,1.296 L372.008,10.656 L371.936,10.656 C371.359997,9.74399544 370.574005,9.05400234 369.578,8.586 C368.581995,8.11799766 367.532006,7.884 366.428,7.884 C365.059993,7.884 363.860005,8.1539973 362.828,8.694 C361.795995,9.2340027 360.938003,9.94799556 360.254,10.836 C359.569997,11.7240044 359.054002,12.7499942 358.706,13.914 C358.357998,15.0780058 358.184,16.2839938 358.184,17.532 C358.184,18.8280065 358.357998,20.075994 358.706,21.276 C359.054002,22.476006 359.569997,23.5379954 360.254,24.462 C360.938003,25.3860046 361.807995,26.1179973 362.864,26.658 C363.920005,27.1980027 365.143993,27.468 366.536,27.468 C367.760006,27.468 368.857995,27.2460022 369.83,26.802 C370.802005,26.3579978 371.587997,25.632005 372.188,24.624 L372.26,24.624 Z M385.508,17.712 C385.508,16.9679963 385.579999,16.2360036 385.724,15.516 C385.868001,14.7959964 386.113998,14.1600028 386.462,13.608 C386.810002,13.0559972 387.271997,12.6060017 387.848,12.258 C388.424003,11.9099983 389.143996,11.736 390.008,11.736 C390.872004,11.736 391.597997,11.9099983 392.186,12.258 C392.774003,12.6060017 393.241998,13.0559972 393.59,13.608 C393.938002,14.1600028 394.183999,14.7959964 394.328,15.516 C394.472001,16.2360036 394.544,16.9679963 394.544,17.712 C394.544,18.4560037 394.472001,19.1819965 394.328,19.89 C394.183999,20.5980035 393.938002,21.2339972 393.59,21.798 C393.241998,22.3620028 392.774003,22.8119983 392.186,23.148 C391.597997,23.4840017 390.872004,23.652 390.008,23.652 C389.143996,23.652 388.424003,23.4840017 387.848,23.148 C387.271997,22.8119983 386.810002,22.3620028 386.462,21.798 C386.113998,21.2339972 385.868001,20.5980035 385.724,19.89 C385.579999,19.1819965 385.508,18.4560037 385.508,17.712 L385.508,17.712 Z M380.396,17.712 C380.396,19.2000074 380.623998,20.543994 381.08,21.744 C381.536002,22.944006 382.183996,23.9699957 383.024,24.822 C383.864004,25.6740043 384.871994,26.3279977 386.048,26.784 C387.224006,27.2400023 388.543993,27.468 390.008,27.468 C391.472007,27.468 392.797994,27.2400023 393.986,26.784 C395.174006,26.3279977 396.187996,25.6740043 397.028,24.822 C397.868004,23.9699957 398.515998,22.944006 398.972,21.744 C399.428002,20.543994 399.656,19.2000074 399.656,17.712 C399.656,16.2239926 399.428002,14.8740061 398.972,13.662 C398.515998,12.4499939 397.868004,11.4180043 397.028,10.566 C396.187996,9.71399574 395.174006,9.05400234 393.986,8.586 C392.797994,8.11799766 391.472007,7.884 390.008,7.884 C388.543993,7.884 387.224006,8.11799766 386.048,8.586 C384.871994,9.05400234 383.864004,9.71399574 383.024,10.566 C382.183996,11.4180043 381.536002,12.4499939 381.08,13.662 C380.623998,14.8740061 380.396,16.2239926 380.396,17.712 L380.396,17.712 Z M403.112,8.388 L403.112,27 L408.224,27 L408.224,16.2 C408.224,15.2879954 408.355999,14.5500028 408.62,13.986 C408.884001,13.4219972 409.201998,12.9900015 409.574,12.69 C409.946002,12.3899985 410.329998,12.1860005 410.726,12.078 C411.122002,11.9699995 411.439999,11.916 411.68,11.916 C412.496004,11.916 413.113998,12.0539986 413.534,12.33 C413.954002,12.6060014 414.253999,12.9719977 414.434,13.428 C414.614001,13.8840023 414.716,14.3819973 414.74,14.922 C414.764,15.4620027 414.776,16.0079972 414.776,16.56 L414.776,27 L419.888,27 L419.888,16.632 C419.888,16.0559971 419.93,15.4860028 420.014,14.922 C420.098,14.3579972 420.265999,13.8540022 420.518,13.41 C420.770001,12.9659978 421.117998,12.6060014 421.562,12.33 C422.006002,12.0539986 422.587996,11.916 423.308,11.916 C424.028004,11.916 424.597998,12.0359988 425.018,12.276 C425.438002,12.5160012 425.755999,12.839998 425.972,13.248 C426.188001,13.656002 426.32,14.1359972 426.368,14.688 C426.416,15.2400028 426.44,15.8279969 426.44,16.452 L426.44,27 L431.552,27 L431.552,14.544 C431.552,13.343994 431.384002,12.3180043 431.048,11.466 C430.711998,10.6139957 430.244003,9.92400264 429.644,9.396 C429.043997,8.86799736 428.324004,8.4840012 427.484,8.244 C426.643996,8.0039988 425.732005,7.884 424.748,7.884 C423.451994,7.884 422.330005,8.19599688 421.382,8.82 C420.433995,9.44400312 419.684003,10.1639959 419.132,10.98 C418.627997,9.82799424 417.890005,9.02400228 416.918,8.568 C415.945995,8.11199772 414.872006,7.884 413.696,7.884 C412.471994,7.884 411.386005,8.14799736 410.438,8.676 C409.489995,9.20400264 408.680003,9.9479952 408.008,10.908 L407.936,10.908 L407.936,8.388 L403.112,8.388 Z" id="Freedom" fill="#55A2FC" sketch:type="MSShapeGroup"></path>
            </g>
        </g>
    </g>
</svg>