<?xml version="1.0" encoding="UTF-8" standalone="no"?>
<svg width="674px" height="674px" viewBox="0 0 674 674" version="1.1" xmlns="http://www.w3.org/2000/svg" xmlns:xlink="http://www.w3.org/1999/xlink" xmlns:sketch="http://www.bohemiancoding.com/sketch/ns">
    <!-- Generator: Sketch Beta 3.3.2 (12041) - http://www.bohemiancoding.com/sketch -->
    <title>Group</title>
    <desc>Created with Sketch Beta.</desc>
    <defs>
        <circle id="path-1" cx="337" cy="337" r="337"></circle>
        <path id="path-3" d="M0,30.3352879 C0,13.581571 13.5905916,0 30.3419928,0 L162.658007,0 C179.415427,0 193,13.5865506 193,30.3352879 L193,34.6647121 C193,51.418429 179.613622,62.7399647 163.060423,60.0820967 C163.060423,60.0820967 121.5,52.5 98.5,52.5 C75.5,52.5 29.954424,60.3143458 29.954424,60.3143458 C13.4110524,62.9021612 0,51.4134494 0,34.6647121 L0,30.3352879 Z"></path>
        <circle id="path-5" cx="15" cy="15" r="15"></circle>
        <circle id="path-7" cx="15" cy="15" r="15"></circle>
    </defs>
    <g id="Page-1" stroke="none" stroke-width="1" fill="none" fill-rule="evenodd" sketch:type="MSPage">
        <g id="GBG.NINJA-+-Group" sketch:type="MSLayerGroup">
            <g id="Group">
                <g>
                    <mask id="mask-2" sketch:name="Mask" fill="white">
                        <use xlink:href="#path-1"></use>
                    </mask>
                    <use id="Mask" fill="#BBEBF8" sketch:type="MSShapeGroup" xlink:href="#path-1"></use>
                    <g mask="url(#mask-2)">
                        <g transform="translate(46.000000, 83.000000)">
                            <g>
                                <circle id="Oval-1" fill="#4F5B77" sketch:type="MSShapeGroup" cx="278.5" cy="154.5" r="133.5"></circle>
                                <g id="Rectangle-1-Copy" transform="translate(182.000000, 90.000000)">
                                    <mask id="mask-4" sketch:name="Mask" fill="white">
                                        <use xlink:href="#path-3"></use>
                                    </mask>
                                    <use id="Mask" fill="#FFFFFF" sketch:type="MSShapeGroup" xlink:href="#path-3"></use>
                                </g>
                                <circle id="Oval-4-Copy" fill="#FA907F" sketch:type="MSShapeGroup" cx="281" cy="234" r="20"></circle>
                                <circle id="Oval-4" fill="#FFFFFF" sketch:type="MSShapeGroup" cx="280.5" cy="234.5" r="10.5"></circle>
                                <g transform="translate(0.000000, 201.000000)" sketch:type="MSShapeGroup">
                                    <path d="M222.783992,71.5 C222.783992,71.5 199.499999,172.5 308.999999,146.5 C418.499999,120.5 327.283992,66 327.283992,66 L222.783992,71.5 Z" id="Path-2" fill="#4F5B77"></path>
                                    <path d="M227.999997,84.4999998 C227.999997,84.4999998 34,178.5 218,290.5 C292.230898,335.684025 293.000004,375.5 303.000004,364 C313.000004,352.5 268.999997,303.5 259.499997,293.5 C249.999997,283.5 126.000001,189.999998 235.999997,152 C345.999994,114.000001 227.999997,84.4999998 227.999997,84.4999998 Z" id="Path-3" fill="#4F5B77"></path>
                                    <path d="M150.182774,48.0651401 C150.182774,48.0651401 -43.8172229,142.06514 140.182777,254.06514 C214.413675,299.249165 215.182781,339.065141 225.182781,327.565141 C235.182781,316.065141 191.182774,267.06514 181.682774,257.06514 C172.182774,247.06514 48.1827777,153.565139 158.182774,115.56514 C268.182771,77.5651415 150.182774,48.0651401 150.182774,48.0651401 Z" id="Path-3-Copy-2" fill="#4F5B77" transform="translate(143.785420, 188.816609) rotate(31.000000) translate(-143.785420, -188.816609) "></path>
                                    <path d="M490.594448,63.6715682 C494.35928,48.7470198 487.642182,39.3747125 476.177502,34.0956078 C459.443866,26.3903236 198.150094,132.328211 382.150094,244.328211 C456.380992,289.512236 466.177506,328.827143 476.177506,317.327143 C486.177506,305.827143 422.257974,247.020167 412.757974,237.020167 C403.257974,227.020167 282.181295,132.317103 495.050772,86.4884897 C562.077446,72.0583348 488.864201,70.5306166 490.594448,63.6715682 Z" id="Path-3-Copy-3" fill="#4F5B77" transform="translate(420.089618, 176.524564) scale(-1, 1) rotate(31.000000) translate(-420.089618, -176.524564) "></path>
                                    <path d="M415.969639,94.4999998 C415.969639,94.4999998 160.049381,174 344.049381,286 C418.280279,331.184025 402.549382,308.5 400.549382,306.5 C398.549382,304.5 373.049378,288.5 337.549382,257.5 C302.049386,226.5 296.580757,187.499998 406.580754,149.5 C516.580751,111.500001 415.969639,94.4999998 415.969639,94.4999998 Z" id="Path-3-Copy" fill="#4F5B77" transform="translate(367.764208, 204.226677) scale(-1, 1) translate(-367.764208, -204.226677) "></path>
                                    <circle id="Oval-20" fill="#5B6B90" cx="205.5" cy="145.5" r="7.5"></circle>
                                    <circle id="Oval-20-Copy-5" fill="#5B6B90" cx="372.5" cy="143.5" r="7.5"></circle>
                                    <circle id="Oval-20-Copy-16" fill="#5B6B90" cx="338.5" cy="114.5" r="7.5"></circle>
                                    <circle id="Oval-20-Copy-17" fill="#5B6B90" cx="350.5" cy="85.5" r="7.5"></circle>
                                    <circle id="Oval-20-Copy-18" fill="#5B6B90" cx="221.5" cy="119.5" r="7.5"></circle>
                                    <circle id="Oval-20-Copy-19" fill="#5B6B90" cx="205.5" cy="91.5" r="7.5"></circle>
                                    <circle id="Oval-20-Copy-6" fill="#5B6B90" cx="416.5" cy="160.5" r="7.5"></circle>
                                    <circle id="Oval-20-Copy-7" fill="#5B6B90" cx="431.5" cy="204.5" r="7.5"></circle>
                                    <circle id="Oval-20-Copy-8" fill="#5B6B90" cx="497.5" cy="158.5" r="7.5"></circle>
                                    <circle id="Oval-20-Copy-10" fill="#5B6B90" cx="471" cy="114" r="13"></circle>
                                    <circle id="Oval-20-Copy-11" fill="#5B6B90" cx="412" cy="89" r="8"></circle>
                                    <circle id="Oval-20-Copy-12" fill="#5B6B90" cx="450" cy="92" r="8"></circle>
                                    <circle id="Oval-20-Copy-13" fill="#5B6B90" cx="150" cy="106" r="11"></circle>
                                    <circle id="Oval-20-Copy-14" fill="#5B6B90" cx="99" cy="137" r="8"></circle>
                                    <circle id="Oval-20-Copy-20" fill="#5B6B90" cx="131" cy="128" r="8"></circle>
                                    <circle id="Oval-20-Copy-15" fill="#5B6B90" cx="102" cy="189" r="8"></circle>
                                    <circle id="Oval-20-Copy-9" fill="#5B6B90" cx="439.5" cy="233.5" r="7.5"></circle>
                                    <circle id="Oval-20-Copy" fill="#5B6B90" cx="171.5" cy="160.5" r="7.5"></circle>
                                    <circle id="Oval-20-Copy-2" fill="#5B6B90" cx="179.5" cy="211.5" r="7.5"></circle>
                                    <circle id="Oval-20-Copy-3" fill="#5B6B90" cx="151.5" cy="188.5" r="7.5"></circle>
                                    <circle id="Oval-20-Copy-4" fill="#5B6B90" cx="196" cy="253" r="5"></circle>
                                </g>
                                <g id="Path-1-+-Oval-7-+-Oval-6" transform="translate(334.000000, 0.000000)" sketch:type="MSShapeGroup">
                                    <path d="M29.4647788,18.0627072 C29.4647788,18.0627072 2.96477879,21.5627072 5.46477879,52.0627072" id="Path-1" stroke="#4F5B77" stroke-width="2" transform="translate(17.381587, 35.062707) rotate(-19.000000) translate(-17.381587, -35.062707) "></path>
                                    <path d="M22.2093735,5.24145123 C22.7577942,5.83950921 23.5456218,6.214455 24.4210227,6.214455 C25.2964236,6.214455 26.0842512,5.83950921 26.6326719,5.24145123 L26.6326719,5.24145123 C26.8389353,6.02065195 27.356746,6.71502603 28.1245629,7.1232815 C28.9026066,7.5369747 29.7806637,7.57355938 30.5492913,7.29706864 C30.3671694,8.09473961 30.510129,8.9634577 31.0163891,9.6864721 C31.5143439,10.3976252 32.2649725,10.8267088 33.0620177,10.9373541 L33.0620177,10.9373541 C32.5335512,11.5548952 32.2563208,12.3838461 32.3631819,13.2541596 C32.4696898,14.1215976 32.936481,14.8568592 33.5951883,15.3284015 C32.8452791,15.6275897 32.2176183,16.226805 31.9054601,17.0400049 C31.5901893,17.8613134 31.660135,18.7357566 32.0266554,19.4642417 L32.0266554,19.4642417 C31.2115015,19.3794625 30.3649841,19.6270697 29.7079801,20.2186388 C29.0638898,20.7985802 28.7295235,21.5942149 28.7157876,22.3974359 C28.0379203,21.9465154 27.179938,21.7714483 26.3277293,21.9839278 C25.4811427,22.1950056 24.8090747,22.7464416 24.4210227,23.456002 L24.4210227,23.456002 C24.0329706,22.7464416 23.3609027,22.1950056 22.5143161,21.9839278 C21.6621074,21.7714483 20.804125,21.9465154 20.1262578,22.3974359 C20.1125219,21.5942149 19.7781555,20.7985802 19.1340653,20.2186388 C18.4770612,19.6270697 17.6305439,19.3794625 16.81539,19.4642417 L16.81539,19.4642417 C17.1819103,18.7357566 17.2518561,17.8613134 16.9365853,17.0400049 C16.6244271,16.226805 15.9967663,15.6275897 15.2468571,15.3284015 C15.9055644,14.8568592 16.3723555,14.1215976 16.4788635,13.2541596 C16.5857246,12.3838461 16.3084942,11.5548952 15.7800276,10.9373541 L15.7800276,10.9373541 C16.5770729,10.8267088 17.3277015,10.3976252 17.8256563,9.6864721 C18.3319164,8.9634577 18.474876,8.09473961 18.2927541,7.29706864 C19.0613816,7.57355938 19.9394387,7.5369747 20.7174825,7.1232815 C21.4852994,6.71502603 22.0031101,6.02065195 22.2093735,5.24145123 Z M21.5203508,2.44599255 C21.85976,1.1614503 23.0298,0.214455005 24.4210227,0.214455005 C25.8122454,0.214455005 26.9822854,1.1614503 27.3216946,2.44599255 C28.2234004,1.46163623 29.7080529,1.16981775 30.9413923,1.82559594 C32.1647904,2.47608824 32.7534848,3.85296473 32.4585349,5.14197708 L32.4585349,5.14197708 C33.7011258,4.69434863 35.1373699,5.11116187 35.9313013,6.24501348 C36.7333034,7.39039107 36.6235685,8.90142577 35.7540411,9.91639809 C37.0685695,10.0982956 38.1490827,11.143486 38.3184588,12.5229435 C38.4881774,13.9051912 37.6890496,15.1831042 36.4533177,15.6754432 L36.4533177,15.6754432 C37.5378951,16.451017 38.0070231,17.8874586 37.5069426,19.1902126 C37.0098897,20.4850799 35.7128943,21.2373986 34.3961686,21.099796 C34.9895941,22.2779779 34.7503623,23.7522538 33.7227638,24.6775077 C32.6826194,25.6140579 31.1674781,25.6885003 30.053789,24.9467678 L30.053789,24.9467678 C30.0316795,26.2720657 29.12643,27.4698151 27.7792607,27.8057022 C26.426636,28.1429494 25.0594664,27.5038892 24.4210227,26.3351237 C23.782579,27.5038892 22.4154094,28.1429494 21.0627847,27.8057022 C19.7156154,27.4698151 18.8103659,26.2720657 18.7882564,24.9467678 L18.7882564,24.9467678 C17.6745673,25.6885003 16.1594259,25.6140579 15.1192816,24.6775077 C14.0916831,23.7522538 13.8524513,22.2779779 14.4458768,21.099796 C13.1291511,21.2373986 11.8321557,20.4850799 11.3351027,19.1902126 C10.8350223,17.8874586 11.3041503,16.451017 12.3887277,15.6754432 L12.3887277,15.6754432 C11.1529958,15.1831042 10.3538679,13.9051912 10.5235866,12.5229435 C10.6929627,11.143486 11.7734759,10.0982956 13.0880042,9.91639809 C12.2184769,8.90142577 12.108742,7.39039107 12.910744,6.24501348 C13.7046755,5.11116187 15.1409196,4.69434863 16.3835105,5.14197708 C16.0885606,3.85296473 16.677255,2.47608824 17.9006531,1.82559594 C19.1339925,1.16981775 20.618645,1.46163623 21.5203508,2.44599255 Z" id="Oval-7" fill="#F6907F"></path>
                                    <circle id="Oval-6" fill="#F9DAAD" cx="24.4210227" cy="14.0549891" r="9.5"></circle>
                                </g>
                                <g id="Oval-40" transform="translate(244.000000, 105.000000)">
                                    <mask id="mask-6" sketch:name="Mask" fill="white">
                                        <use xlink:href="#path-5"></use>
                                    </mask>
                                    <use id="Mask" fill="#4F5B77" sketch:type="MSShapeGroup" xlink:href="#path-5"></use>
                                    <circle fill="#FFFFFF" sketch:type="MSShapeGroup" mask="url(#mask-6)" cx="24" cy="7" r="7"></circle>
                                </g>
                                <g id="Oval-40-Copy" transform="translate(284.000000, 105.000000)">
                                    <mask id="mask-8" sketch:name="Mask" fill="white">
                                        <use xlink:href="#path-7"></use>
                                    </mask>
                                    <use id="Mask" fill="#4F5B77" sketch:type="MSShapeGroup" xlink:href="#path-7"></use>
                                    <circle fill="#FFFFFF" sketch:type="MSShapeGroup" mask="url(#mask-8)" cx="24" cy="7" r="7"></circle>
                                </g>
                            </g>
                            <g transform="translate(7.000000, 11.000000)">
                                <circle id="Oval-43" fill="#E9FAFF" sketch:type="MSShapeGroup" cx="531" cy="123" r="24"></circle>
                                <circle id="Oval-43-Copy-7" fill="#E9FAFF" sketch:type="MSShapeGroup" cx="36" cy="24" r="24"></circle>
                                <circle id="Oval-43-Copy" fill="#E9FAFF" sketch:type="MSShapeGroup" cx="513" cy="176" r="14"></circle>
                                <circle id="Oval-43-Copy-8" fill="#E9FAFF" sketch:type="MSShapeGroup" cx="36" cy="74" r="14"></circle>
                                <circle id="Oval-43-Copy-2" fill="#E9FAFF" sketch:type="MSShapeGroup" cx="523.5" cy="213.5" r="10.5"></circle>
                                <circle id="Oval-43-Copy-9" fill="#E9FAFF" sketch:type="MSShapeGroup" cx="50.5" cy="112.5" r="10.5"></circle>
                                <circle id="Oval-43-Copy-3" fill="#E9FAFF" sketch:type="MSShapeGroup" cx="503.5" cy="259.5" r="10.5"></circle>
                                <circle id="Oval-43-Copy-10" fill="#E9FAFF" sketch:type="MSShapeGroup" cx="36.5" cy="143.5" r="10.5"></circle>
                                <circle id="Oval-43-Copy-4" fill="#E9FAFF" sketch:type="MSShapeGroup" cx="513.5" cy="277.5" r="7.5"></circle>
                                <circle id="Oval-43-Copy-11" fill="#E9FAFF" sketch:type="MSShapeGroup" cx="57.5" cy="161.5" r="7.5"></circle>
                                <circle id="Oval-43-Copy-5" fill="#E9FAFF" sketch:type="MSShapeGroup" cx="506.5" cy="303.5" r="7.5"></circle>
                                <circle id="Oval-43-Copy-12" fill="#E9FAFF" sketch:type="MSShapeGroup" cx="50.5" cy="187.5" r="7.5"></circle>
                                <circle id="Oval-43-Copy-6" fill="#E9FAFF" sketch:type="MSShapeGroup" cx="528.5" cy="326.5" r="7.5"></circle>
                                <circle id="Oval-43-Copy-13" fill="#E9FAFF" sketch:type="MSShapeGroup" cx="72.5" cy="210.5" r="7.5"></circle>
                                <circle id="Oval-57" fill="#98D2B2" sketch:type="MSShapeGroup" cx="64" cy="533" r="64"></circle>
                                <circle id="Oval-57-Copy" fill="#A7D7BA" sketch:type="MSShapeGroup" cx="168" cy="549" r="64"></circle>
                                <circle id="Oval-57-Copy-2" fill="#98D2B2" sketch:type="MSShapeGroup" cx="277" cy="576" r="64"></circle>
                                <circle id="Oval-57-Copy-3" fill="#A7D7BA" sketch:type="MSShapeGroup" cx="389" cy="549" r="64"></circle>
                                <circle id="Oval-57-Copy-4" fill="#98D2B2" sketch:type="MSShapeGroup" cx="491" cy="533" r="64"></circle>
                            </g>
                        </g>
                    </g>
                </g>
            </g>
        </g>
    </g>
</svg>