<?xml version="1.0" encoding="UTF-8" standalone="no"?>
<svg width="675px" height="674px" viewBox="0 0 675 674" version="1.1" xmlns="http://www.w3.org/2000/svg" xmlns:xlink="http://www.w3.org/1999/xlink" xmlns:sketch="http://www.bohemiancoding.com/sketch/ns">
    <!-- Generator: Sketch Beta 3.3.2 (12041) - http://www.bohemiancoding.com/sketch -->
    <title>Group</title>
    <desc>Created with Sketch Beta.</desc>
    <defs>
        <path id="path-1" d="M337,674 C523.119961,674 674,523.119961 674,337 C674,150.880039 523.119961,0 337,0 C150.880039,0 0,150.880039 0,337 C0,523.119961 150.880039,674 337,674 Z"></path>
        <path id="path-3" d="M0,30.3352879 C0,13.581571 13.5905916,0 30.3419928,0 L162.658007,0 C179.415427,0 193,13.5865506 193,30.3352879 L193,34.6647121 C193,51.418429 179.613622,62.7399647 163.060423,60.0820967 C163.060423,60.0820967 121.5,52.5 98.5,52.5 C75.5,52.5 29.954424,60.3143458 29.954424,60.3143458 C13.4110524,62.9021612 0,51.4134494 0,34.6647121 L0,30.3352879 Z"></path>
        <rect id="path-5" x="0" y="0" width="13" height="32" rx="31"></rect>
        <circle id="path-7" cx="15" cy="15" r="15"></circle>
        <circle id="path-9" cx="15" cy="15" r="15"></circle>
    </defs>
    <g id="Page-1" stroke="none" stroke-width="1" fill="none" fill-rule="evenodd" sketch:type="MSPage">
        <g id="GBG.NINJA-+-Group-Copy" sketch:type="MSLayerGroup" transform="translate(0.500000, 0.000000)">
            <g id="Group">
                <g>
                    <mask id="mask-2" sketch:name="Mask" fill="white">
                        <use xlink:href="#path-1"></use>
                    </mask>
                    <use id="Mask" fill="#F9DAAD" sketch:type="MSShapeGroup" xlink:href="#path-1"></use>
                    <g mask="url(#mask-2)">
                        <g transform="translate(38.000000, 43.000000)">
                            <g transform="translate(21.000000, 38.000000)">
                                <circle id="Oval-1" fill="#4F5B77" sketch:type="MSShapeGroup" cx="278.5" cy="156.5" r="133.5"></circle>
                                <g id="Rectangle-1-Copy" transform="translate(182.000000, 92.000000)">
                                    <mask id="mask-4" sketch:name="Mask" fill="white">
                                        <use xlink:href="#path-3"></use>
                                    </mask>
                                    <use id="Mask" fill="#FFFFFF" sketch:type="MSShapeGroup" xlink:href="#path-3"></use>
                                </g>
                                <circle id="Oval-4-Copy" fill="#FA907F" sketch:type="MSShapeGroup" cx="281" cy="236" r="20"></circle>
                                <circle id="Oval-4" fill="#FFFFFF" sketch:type="MSShapeGroup" cx="280.5" cy="236.5" r="10.5"></circle>
                                <g id="Path-1-+-Oval-7-+-Oval-6" transform="translate(334.000000, 0.000000)">
                                    <path d="M29.4647788,20.0627072 C29.4647788,20.0627072 2.96477879,23.5627072 5.46477879,54.0627072" id="Path-1" stroke="#4F5B77" stroke-width="2" sketch:type="MSShapeGroup" transform="translate(17.381587, 37.062707) rotate(-19.000000) translate(-17.381587, -37.062707) "></path>
                                    <g id="Rectangle-129" transform="translate(24.318935, 17.611296) rotate(-34.000000) translate(-24.318935, -17.611296) translate(17.818935, 1.611296)">
                                        <mask id="mask-6" sketch:name="Mask" fill="white">
                                            <use xlink:href="#path-5"></use>
                                        </mask>
                                        <use id="Mask" fill="#FFFFFF" sketch:type="MSShapeGroup" xlink:href="#path-5"></use>
                                        <rect fill="#6EB8FE" sketch:type="MSShapeGroup" mask="url(#mask-6)" x="-7" y="-5" width="33" height="21"></rect>
                                    </g>
                                </g>
                                <g id="Oval-40" transform="translate(244.000000, 107.000000)">
                                    <mask id="mask-8" sketch:name="Mask" fill="white">
                                        <use xlink:href="#path-7"></use>
                                    </mask>
                                    <use id="Mask" fill="#4F5B77" sketch:type="MSShapeGroup" xlink:href="#path-7"></use>
                                    <circle fill="#FFFFFF" sketch:type="MSShapeGroup" mask="url(#mask-8)" cx="24" cy="7" r="7"></circle>
                                </g>
                                <g id="Oval-40-Copy" transform="translate(284.000000, 107.000000)">
                                    <mask id="mask-10" sketch:name="Mask" fill="white">
                                        <use xlink:href="#path-9"></use>
                                    </mask>
                                    <use id="Mask" fill="#4F5B77" sketch:type="MSShapeGroup" xlink:href="#path-9"></use>
                                    <circle fill="#FFFFFF" sketch:type="MSShapeGroup" mask="url(#mask-10)" cx="24" cy="7" r="7"></circle>
                                </g>
                                <g transform="translate(99.000000, 269.000000)">
                                    <path d="M136.000007,12.4999999 C72.5000068,36.9999999 10.6469704,142.5 2.64697088,190 C-5.35302868,237.5 7.14697088,245.5 54.6469709,210.5 C102.146971,175.5 85.4999982,216.999997 85.4999991,235.499997 C85.5000001,253.999997 80.4999915,279.999997 123.499999,250.999997 C166.500007,221.999997 185.500007,248.499997 216.500007,244.999997 C247.500007,241.499997 274.999992,303.076123 274.999992,232.499997 C274.999992,161.92387 334.293937,214.499997 329.646964,244.999997 C324.999992,275.499997 392.646964,228.5 329.646964,127 C266.646964,25.5 228.000007,12.5 216.500007,12.5 C205.000007,12.5 199.500007,-12 136.000007,12.4999999 Z" id="Path-14" fill="#F2837B" sketch:type="MSShapeGroup"></path>
                                    <rect id="Rectangle-3" fill="#4F5B77" sketch:type="MSShapeGroup" x="100" y="0" width="154" height="380" rx="100"></rect>
                                    <path d="M136.756567,54.5957292 C137.581367,53.1621475 139.596244,52 141.25582,52 L213.75851,52 C215.418578,52 217.440741,53.1676455 218.266503,54.5931073 L235.247826,83.9068927 C236.077454,85.3390263 235.919492,87.5672917 234.911034,88.8632663 L179.838966,159.636734 C178.823333,160.94193 177.141219,160.960981 176.089993,159.689127 L119.160007,90.8108728 C118.105139,89.534613 117.919036,87.3371519 118.743433,85.9042708 L136.756567,54.5957292 Z" id="Path-13" fill="#F1837B" sketch:type="MSShapeGroup"></path>
                                    <text id="SB" sketch:type="MSTextLayer" font-family="Arial" font-size="48" font-weight="bold" fill="#FFFFFF">
                                        <tspan x="144" y="106">SB</tspan>
                                    </text>
                                </g>
                            </g>
                            <g transform="translate(9.000000, 465.000000)">
                                <polygon id="Polygon-1" fill="#C9C8BC" sketch:type="MSShapeGroup" points="41.5 10 80.9688454 68.0425725 65.893088 161.957428 17.106912 161.957428 2.03115457 68.0425725 "></polygon>
                                <polygon id="Polygon-1-Copy" fill="#B6B5A9" sketch:type="MSShapeGroup" points="102 36 146.699656 101.988877 129.625907 208.761123 74.3740931 208.761123 57.3003437 101.988877 "></polygon>
                                <polygon id="Polygon-1-Copy-2" fill="#C9C8BC" sketch:type="MSShapeGroup" points="149 73 185.140148 126.205691 171.33584 212.294309 126.66416 212.294309 112.859852 126.205691 "></polygon>
                                <polygon id="Polygon-1-Copy-3" fill="#B6B5A9" sketch:type="MSShapeGroup" points="210.5 92 253.773071 155.915928 237.244229 259.334072 183.755771 259.334072 167.226929 155.915928 "></polygon>
                                <polygon id="Polygon-1-Copy-4" fill="#C9C8BC" sketch:type="MSShapeGroup" points="265 84 303.993317 141.697081 289.099195 235.052919 240.900805 235.052919 226.006683 141.697081 "></polygon>
                                <polygon id="Polygon-1-Copy-5" fill="#B6B5A9" sketch:type="MSShapeGroup" points="339 87 384.650713 154.716335 367.213692 264.283665 310.786308 264.283665 293.349287 154.716335 "></polygon>
                                <polygon id="Polygon-1-Copy-6" fill="#C9C8BC" sketch:type="MSShapeGroup" points="408 72 452.699656 137.988877 435.625907 244.761123 380.374093 244.761123 363.300344 137.988877 "></polygon>
                                <polygon id="Polygon-1-Copy-7" fill="#B6B5A9" sketch:type="MSShapeGroup" points="467.5 50 509.822015 112.879454 493.656444 214.620546 441.343556 214.620546 425.177985 112.879454 "></polygon>
                                <polygon id="Polygon-1-Copy-8" fill="#C9C8BC" sketch:type="MSShapeGroup" points="530 0 568.993317 57.697081 554.099195 151.052919 505.900805 151.052919 491.006683 57.697081 "></polygon>
                            </g>
                            <g>
                                <polygon id="Polygon-10" fill="#FFEDD2" sketch:type="MSShapeGroup" points="112 119 136.248711 133 136.248711 161 112 175 87.7512887 161 87.7512887 133 "></polygon>
                                <polygon id="Polygon-10-Copy" fill="#FFEDD2" sketch:type="MSShapeGroup" points="84 175 108.248711 189 108.248711 217 84 231 59.7512887 217 59.7512887 189 "></polygon>
                                <polygon id="Polygon-10-Copy-2" fill="#FFEDD2" sketch:type="MSShapeGroup" points="112 241 136.248711 255 136.248711 283 112 297 87.7512887 283 87.7512887 255 "></polygon>
                                <polygon id="Polygon-10-Copy-3" fill="#FFEDD2" sketch:type="MSShapeGroup" points="28 241 52.2487113 255 52.2487113 283 28 297 3.75128869 283 3.75128869 255 "></polygon>
                                <polygon id="Polygon-10-Copy-4" fill="#FFEDD2" sketch:type="MSShapeGroup" points="506 56 530.248711 70 530.248711 98 506 112 481.751289 98 481.751289 70 "></polygon>
                                <polygon id="Polygon-10-Copy-5" fill="#FFEDD2" sketch:type="MSShapeGroup" points="574 91 598.248711 105 598.248711 133 574 147 549.751289 133 549.751289 105 "></polygon>
                                <polygon id="Polygon-10-Copy-6" fill="#FFEDD2" sketch:type="MSShapeGroup" points="478 0 502.248711 14 502.248711 42 478 56 453.751289 42 453.751289 14 "></polygon>
                                <polygon id="Polygon-10-Copy-7" fill="#FFEDD2" sketch:type="MSShapeGroup" points="506 147 530.248711 161 530.248711 189 506 203 481.751289 189 481.751289 161 "></polygon>
                            </g>
                        </g>
                    </g>
                </g>
            </g>
        </g>
    </g>
</svg>